<svg width="500" height="500" viewBox="0 0 500 500" fill="none" xmlns="http://www.w3.org/2000/svg">
    <path
        d="M383.164 133.143C379.814 126.651 376.302 120.256 372.307 114.163C326.196 43.845 202.7 5.565 141.508 78.247C126.923 95.57 121.84 116.503 112.024 136.37C89.6968 181.555 47.9818 208.569 21.8258 250.409C1.5508 282.843 4.2538 324.411 15.5638 359.473C27.8548 397.573 49.4848 424.182 84.0828 444.409C122.87 467.085 164.355 460.789 206.28 452.898C225.135 449.349 244.575 445.729 263.854 447.083C287.991 448.779 311.822 455.61 335.769 458.931C360.674 462.384 386.514 463.201 410.505 455.675C487.335 431.575 505.536 318.638 473.942 253.943C462.758 231.043 443.804 213.376 426.204 195.451C407.205 176.101 395.56 157.164 383.164 133.143Z"
        fill="#D6EEEB" />
    <path opacity="0.7"
        d="M383.164 133.143C379.814 126.651 376.302 120.256 372.307 114.163C326.196 43.845 202.7 5.565 141.508 78.247C126.923 95.57 121.84 116.503 112.024 136.37C89.6968 181.555 47.9818 208.569 21.8258 250.409C1.5508 282.843 4.2538 324.411 15.5638 359.473C27.8548 397.573 49.4848 424.182 84.0828 444.409C122.87 467.085 164.355 460.789 206.28 452.898C225.135 449.349 244.575 445.729 263.854 447.083C287.991 448.779 311.822 455.61 335.769 458.931C360.674 462.384 386.514 463.201 410.505 455.675C487.335 431.575 505.536 318.638 473.942 253.943C462.758 231.043 443.804 213.376 426.204 195.451C407.205 176.101 395.56 157.164 383.164 133.143Z"
        fill="white" />
    <path d="M493.491 472.898H7.50781" stroke="#263238" stroke-miterlimit="10" stroke-linecap="round"
        stroke-linejoin="round" />
    <path d="M461.632 49.8281H348.221V180.863H461.632V49.8281Z" stroke="#263238" stroke-miterlimit="10"
        stroke-linecap="round" stroke-linejoin="round" />
    <path d="M454.56 131.974V172.694H355.291V57.998H454.56V123.322" stroke="#263238" stroke-miterlimit="10"
        stroke-linecap="round" stroke-linejoin="round" />
    <path d="M409.129 86.7324H429.689V143.956H380.162V86.7324H401.197" stroke="#263238" stroke-miterlimit="10"
        stroke-linecap="round" stroke-linejoin="round" />
    <path d="M170.351 25.5996H45.6797V275.547H170.351V25.5996Z" fill="#D6EEEB" stroke="#263238" stroke-miterlimit="10"
        stroke-linecap="round" stroke-linejoin="round" />
    <path d="M156.371 51.5527H59.6602V249.591H156.371V51.5527Z" fill="white" stroke="#263238" stroke-miterlimit="10"
        stroke-linecap="round" stroke-linejoin="round" />
    <path d="M126.913 200.512L92.9707 234.454" stroke="#263238" stroke-miterlimit="10" stroke-linecap="round"
        stroke-linejoin="round" />
    <path d="M148.636 178.789L132.344 195.081" stroke="#263238" stroke-miterlimit="10" stroke-linecap="round"
        stroke-linejoin="round" />
    <path d="M143.204 98.2344L126.912 114.526" stroke="#263238" stroke-miterlimit="10" stroke-linecap="round"
        stroke-linejoin="round" />
    <path d="M77.5852 126.746L68.5332 135.797" stroke="#263238" stroke-miterlimit="10" stroke-linecap="round"
        stroke-linejoin="round" />
    <path d="M128.722 75.6074L83.4668 120.863" stroke="#263238" stroke-miterlimit="10" stroke-linecap="round"
        stroke-linejoin="round" />
    <path d="M110.579 51.5469H105.451V249.592H110.579V51.5469Z" fill="#D6EEEB" stroke="#263238" stroke-miterlimit="10"
        stroke-linecap="round" stroke-linejoin="round" />
    <path d="M156.208 148.006H59.6172V153.134H156.208V148.006Z" fill="#D6EEEB" stroke="#263238" stroke-miterlimit="10"
        stroke-linecap="round" stroke-linejoin="round" />
    <path d="M294.845 25.5996H170.174V275.547H294.845V25.5996Z" fill="#D6EEEB" stroke="#263238" stroke-miterlimit="10"
        stroke-linecap="round" stroke-linejoin="round" />
    <path d="M280.865 51.5527H184.154V249.591H280.865V51.5527Z" fill="white" stroke="#263238" stroke-miterlimit="10"
        stroke-linecap="round" stroke-linejoin="round" />
    <path d="M253.629 88.2793L198.869 143.038" stroke="#263238" stroke-miterlimit="10" stroke-linecap="round"
        stroke-linejoin="round" />
    <path d="M274.445 67.4609L259.963 81.9429" stroke="#263238" stroke-miterlimit="10" stroke-linecap="round"
        stroke-linejoin="round" />
    <path d="M214.708 62.9355L194.795 82.8485" stroke="#263238" stroke-miterlimit="10" stroke-linecap="round"
        stroke-linejoin="round" />
    <path d="M235.073 51.5469H229.945V249.592H235.073V51.5469Z" fill="#D6EEEB" stroke="#263238" stroke-miterlimit="10"
        stroke-linecap="round" stroke-linejoin="round" />
    <path d="M280.702 148.006H184.111V153.134H280.702V148.006Z" fill="#D6EEEB" stroke="#263238" stroke-miterlimit="10"
        stroke-linecap="round" stroke-linejoin="round" />
    <path d="M313.034 25.7207H19.4961V30.2117H313.034V25.7207Z" fill="#D6EEEB" stroke="#263238" stroke-miterlimit="10"
        stroke-linecap="round" stroke-linejoin="round" />
    <path d="M307.043 22.8633H301.908V36.3373H307.043V22.8633Z" fill="#D6EEEB" stroke="#263238" stroke-miterlimit="10"
        stroke-linecap="round" stroke-linejoin="round" />
    <path d="M29.3498 22.8633H24.2148V36.3373H29.3498V22.8633Z" fill="#D6EEEB" stroke="#263238" stroke-miterlimit="10"
        stroke-linecap="round" stroke-linejoin="round" />
    <path
        d="M170.173 25.5996C170.173 25.5996 128.606 121.969 80.3052 149.777C49.2602 167.65 49.7392 168.456 49.7392 168.456L56.7372 343.807H18.3242L32.7582 168.456V25.8136L170.173 25.5996Z"
        fill="white" stroke="#263238" stroke-miterlimit="10" stroke-linecap="round" stroke-linejoin="round" />
    <path d="M45.9794 167.156H35.6504C35.6504 167.156 55.4464 150.372 63.6234 124.121" stroke="#263238"
        stroke-miterlimit="10" stroke-linecap="round" stroke-linejoin="round" />
    <path d="M86.6328 116.755C91.7248 108.942 96.9038 100.083 101.926 90.123" stroke="#263238" stroke-miterlimit="10"
        stroke-linecap="round" stroke-linejoin="round" />
    <path d="M45.1191 164.143C45.1191 164.143 63.3601 151.039 83.7631 121.062" stroke="#263238" stroke-miterlimit="10"
        stroke-linecap="round" stroke-linejoin="round" />
    <path d="M90.3051 27.291C90.3051 27.291 84.7101 73.769 71.3691 109.058" stroke="#263238" stroke-miterlimit="10"
        stroke-linecap="round" stroke-linejoin="round" />
    <path d="M54.5291 111.932C50.5091 126.613 45.0481 142.976 38.6621 152.954" stroke="#263238" stroke-miterlimit="10"
        stroke-linecap="round" stroke-linejoin="round" />
    <path d="M61.9025 80.2246C61.9025 80.2246 60.0745 90.1136 56.8555 103.028" stroke="#263238" stroke-miterlimit="10"
        stroke-linecap="round" stroke-linejoin="round" />
    <path d="M131.757 64.3262C131.031 65.8922 130.268 67.4652 129.467 69.0352" stroke="#263238" stroke-miterlimit="10"
        stroke-linecap="round" stroke-linejoin="round" />
    <path d="M144.098 26.4297C144.098 26.4297 141.468 41.0427 134.521 57.9847" stroke="#263238" stroke-miterlimit="10"
        stroke-linecap="round" stroke-linejoin="round" />
    <path d="M40.9685 221.426L40.8145 250.213" stroke="#263238" stroke-miterlimit="10" stroke-linecap="round"
        stroke-linejoin="round" />
    <path d="M41.2443 169.307L41.0273 209.996" stroke="#263238" stroke-miterlimit="10" stroke-linecap="round"
        stroke-linejoin="round" />
    <path d="M36.2533 187.232L27.9043 276.896" stroke="#263238" stroke-miterlimit="10" stroke-linecap="round"
        stroke-linejoin="round" />
    <path d="M37.8024 170.598L37.0254 178.947" stroke="#263238" stroke-miterlimit="10" stroke-linecap="round"
        stroke-linejoin="round" />
    <path d="M37.3496 335.82L56.7376 343.806L56.6676 332.873L37.3496 335.82Z" fill="white" stroke="#263238"
        stroke-miterlimit="10" stroke-linecap="round" stroke-linejoin="round" />
    <path d="M45.3356 215.635L37.3496 335.821L60.9076 335.022L49.3286 170.516" fill="white" />
    <path d="M45.3356 215.635L37.3496 335.821L60.9076 335.022L49.3286 170.516" stroke="#263238" stroke-miterlimit="10"
        stroke-linecap="round" stroke-linejoin="round" />
    <path
        d="M160.029 25.5996C160.029 25.5996 201.596 121.969 249.897 149.777C280.941 167.65 280.463 168.456 280.463 168.456L273.465 344.451H311.879L297.445 168.456V25.8136L160.029 25.5996Z"
        fill="white" stroke="#263238" stroke-miterlimit="10" stroke-linecap="round" stroke-linejoin="round" />
    <path d="M284.224 167.156H294.553C294.553 167.156 274.757 150.372 266.58 124.121" stroke="#263238"
        stroke-miterlimit="10" stroke-linecap="round" stroke-linejoin="round" />
    <path d="M235.795 104.068C233.27 99.683 230.754 95.037 228.277 90.123" stroke="#263238" stroke-miterlimit="10"
        stroke-linecap="round" stroke-linejoin="round" />
    <path d="M269.778 150.148C261.062 141.03 249.625 127.238 238.184 108.133" stroke="#263238" stroke-miterlimit="10"
        stroke-linecap="round" stroke-linejoin="round" />
    <path d="M285.084 164.143C285.084 164.143 280.711 161.002 273.852 154.277" stroke="#263238" stroke-miterlimit="10"
        stroke-linecap="round" stroke-linejoin="round" />
    <path d="M242.984 47.4277C245.924 64.1777 251.066 88.5127 258.832 109.057" stroke="#263238" stroke-miterlimit="10"
        stroke-linecap="round" stroke-linejoin="round" />
    <path d="M239.896 27.291C239.896 27.291 240.492 32.247 241.761 40.15" stroke="#263238" stroke-miterlimit="10"
        stroke-linecap="round" stroke-linejoin="round" />
    <path d="M268.301 80.2246C268.301 80.2246 277.769 131.437 291.54 152.955" stroke="#263238" stroke-miterlimit="10"
        stroke-linecap="round" stroke-linejoin="round" />
    <path d="M186.104 26.4297C186.104 26.4297 189.977 47.9477 200.736 69.0347" stroke="#263238" stroke-miterlimit="10"
        stroke-linecap="round" stroke-linejoin="round" />
    <path d="M289.27 227.969L289.389 250.213" stroke="#263238" stroke-miterlimit="10" stroke-linecap="round"
        stroke-linejoin="round" />
    <path d="M288.957 169.307L289.224 219.395" stroke="#263238" stroke-miterlimit="10" stroke-linecap="round"
        stroke-linejoin="round" />
    <path d="M301.088 263.887L302.299 276.896" stroke="#263238" stroke-miterlimit="10" stroke-linecap="round"
        stroke-linejoin="round" />
    <path d="M292.4 170.598L300.518 257.776" stroke="#263238" stroke-miterlimit="10" stroke-linecap="round"
        stroke-linejoin="round" />
    <path d="M284.909 335.421L273.465 344.45L274.128 333.824L284.909 335.421Z" fill="white" stroke="#263238"
        stroke-miterlimit="10" stroke-linecap="round" stroke-linejoin="round" />
    <path d="M280.463 168.455L264.545 333.424L284.909 335.421L283.312 178.9" fill="white" />
    <path d="M280.463 168.455L264.545 333.424L284.909 335.421L283.312 178.9" stroke="#263238" stroke-miterlimit="10"
        stroke-linecap="round" stroke-linejoin="round" />
    <path
        d="M111.643 332.107C106.15 329.876 95.3371 326.443 94.1361 328.503C92.9351 330.563 88.6431 334.682 88.6431 334.682C88.6431 334.682 86.2401 327.816 84.1801 327.473C82.1201 327.13 73.3671 326.958 71.4791 327.473C69.5911 327.988 76.4571 332.794 82.2921 336.398C83.7021 337.269 84.9991 337.916 86.2011 338.428C85.9051 339.884 85.1731 344.053 85.6101 347.838C86.1591 352.605 86.2381 365.452 83.9251 373.545C81.3901 382.419 77.5701 412.031 79.2661 422.206L81.1991 421.884C79.5391 411.925 83.3121 382.823 85.8101 374.083C88.1971 365.727 88.1221 352.511 87.5561 347.612C87.1851 344.391 87.7571 340.738 88.0581 339.148C90.9181 340.156 93.1591 340.53 94.9931 341.717C97.9111 343.605 98.9411 345.15 98.9411 345.15C98.9411 345.15 99.2841 343.09 100.142 343.262C101 343.434 112.843 346.18 114.903 345.837C116.963 345.495 117.135 334.338 111.643 332.107Z"
        fill="#263238" />
    <path
        d="M73.7796 418.805C73.7346 418.582 69.2996 396.396 67.9416 388.923C67.2466 385.107 66.2966 374.786 65.3776 364.805C64.4826 355.089 63.5586 345.043 62.9686 342.266C61.8406 336.948 58.6326 333.691 58.5996 333.659L59.9856 332.273C60.1336 332.421 63.6386 335.978 64.8866 341.859C65.4986 344.749 66.3876 354.404 67.3286 364.625C68.2446 374.564 69.1896 384.841 69.8686 388.573C71.2246 396.03 75.6566 418.198 75.7016 418.421L73.7796 418.805Z"
        fill="#263238" stroke="#263238" stroke-miterlimit="10" stroke-linecap="round" stroke-linejoin="round" />
    <path
        d="M79.667 417.957L77.707 417.898C77.709 417.841 77.883 412.158 78.224 407.218C78.554 402.425 78.411 354.09 78.222 329.369C78.052 307.137 78.05 277.82 78.05 277.527H80.01C80.01 277.82 80.012 307.131 80.182 329.354C80.342 350.347 80.534 402.206 80.18 407.353C79.841 412.254 79.668 417.901 79.667 417.957Z"
        fill="#263238" stroke="#263238" stroke-miterlimit="10" stroke-linecap="round" stroke-linejoin="round" />
    <path
        d="M80.8528 417.584L78.9238 417.241C80.4798 408.486 88.5228 377.627 99.3198 360.926C110.198 344.098 119.352 331.979 119.444 331.859L121.006 333.042C120.916 333.162 111.802 345.227 100.966 361.99C90.3298 378.441 82.3918 408.929 80.8528 417.584Z"
        fill="#263238" stroke="#263238" stroke-miterlimit="10" stroke-linecap="round" stroke-linejoin="round" />
    <path
        d="M121.099 325.906C121.099 325.906 120.63 319.107 113.831 315.825C107.032 312.543 103.281 311.605 102.344 320.514C101.406 329.423 102.578 337.628 102.578 337.628C102.578 337.628 107.736 328.485 111.721 327.313C115.706 326.141 118.52 329.188 116.41 330.361C114.3 331.533 107.501 335.753 105.157 337.394C102.813 339.035 103.281 339.738 104.922 342.786C106.563 345.834 109.845 353.57 109.845 353.57C109.845 353.57 112.893 340.207 114.299 337.863C115.706 335.519 120.629 337.863 118.988 341.848C117.347 345.834 112.893 356.383 112.893 356.383C112.893 356.383 118.988 362.947 122.036 364.823C125.084 366.698 127.428 373.497 127.428 373.497C127.428 373.497 129.538 371.387 135.164 369.277C140.791 367.167 148.761 363.651 148.293 361.306C147.824 358.962 145.714 356.148 141.26 350.288C136.806 344.427 130.007 338.8 132.82 338.566C135.633 338.332 150.637 345.365 152.044 348.647C153.451 351.929 151.575 358.259 151.575 358.259C151.575 358.259 156.029 352.164 156.029 348.881C156.029 345.599 154.154 343.02 154.154 343.02C154.154 343.02 144.542 335.752 140.557 333.642C136.571 331.532 136.337 329.188 137.509 329.188C138.681 329.188 151.106 332.47 153.451 335.518C155.795 338.566 155.795 340.441 156.03 341.144C156.264 341.847 153.217 324.733 149.231 321.217C145.246 317.7 136.806 314.887 131.883 316.763C126.96 318.639 124.85 320.045 124.147 321.452C123.444 322.858 121.099 325.906 121.099 325.906Z"
        fill="#D6EEEB" stroke="#263238" stroke-miterlimit="10" stroke-linecap="round" stroke-linejoin="round" />
    <path
        d="M138.498 350.766C138.498 350.766 133.758 344.803 132.84 346.79C131.923 348.778 139.109 358.105 139.874 357.341C140.639 356.577 140.639 353.672 138.498 350.766Z"
        stroke="#263238" stroke-miterlimit="10" stroke-linecap="round" stroke-linejoin="round" />
    <path d="M123.512 327.063C123.512 327.063 139.262 324.158 144.155 325.687" stroke="#263238" stroke-miterlimit="10"
        stroke-linecap="round" stroke-linejoin="round" />
    <path d="M123.971 330.887C123.971 330.887 136.815 334.098 141.861 338.074" stroke="#263238" stroke-miterlimit="10"
        stroke-linecap="round" stroke-linejoin="round" />
    <path
        d="M123.666 332.111C123.666 332.111 116.479 333.028 112.962 335.781C109.445 338.534 109.139 339.451 109.139 339.451"
        stroke="#263238" stroke-miterlimit="10" stroke-linecap="round" stroke-linejoin="round" />
    <path
        d="M110.057 322.936C110.057 322.936 111.739 323.242 115.103 325.077C118.467 326.912 121.984 327.829 121.984 327.829C121.984 327.829 127.642 337.004 128.865 345.108C130.088 353.212 129.018 367.127 128.865 367.738"
        stroke="#263238" stroke-miterlimit="10" stroke-linecap="round" stroke-linejoin="round" />
    <path d="M127.029 339.297C127.029 339.297 123.359 345.413 121.371 350.612" stroke="#263238" stroke-miterlimit="10"
        stroke-linecap="round" stroke-linejoin="round" />
    <path
        d="M79.78 272.782C79.78 272.782 78.71 268.959 78.71 266.054C78.71 263.149 81.768 259.173 76.722 257.338C71.676 255.503 62.043 250.916 60.208 248.469C58.373 246.023 58.22 244.035 53.939 243.423C49.658 242.811 45.988 242.964 40.483 246.328C34.978 249.692 33.602 253.668 33.602 253.668C33.602 253.668 35.743 252.139 47.975 254.432C60.208 256.726 66.63 264.218 63.419 264.524C60.208 264.83 42.929 257.032 38.648 256.114C34.366 255.197 31.92 254.738 29.321 257.49C26.722 260.242 25.957 266.359 25.957 266.359C25.957 266.359 33.144 261.466 41.554 262.231C49.964 262.995 63.114 269.723 61.279 270.488C59.444 271.252 48.282 266.054 40.33 267.277C32.379 268.5 27.486 269.265 26.874 272.323C26.262 275.381 29.015 277.369 29.015 277.369C29.015 277.369 27.333 274.464 33.449 271.252C39.566 268.041 49.505 268.806 49.505 269.57C49.505 270.335 43.847 269.723 39.872 271.711C35.896 273.699 30.697 276.604 32.379 277.674C34.061 278.744 37.884 281.191 38.648 283.332C39.412 285.473 39.26 290.213 39.871 288.684C40.483 287.155 41.247 282.568 42.623 281.65C43.999 280.732 59.137 281.344 59.137 281.344C59.137 281.344 65.406 278.133 66.171 276.604C66.936 275.075 67.241 272.476 70.758 273.24C74.275 274.005 74.122 275.534 72.134 278.898C70.146 282.262 64.947 286.085 64.947 286.085C64.947 286.085 73.357 281.498 77.18 281.039C81.003 280.58 83.143 279.051 82.379 277.369C81.615 275.687 80.238 274.158 82.532 273.852C84.826 273.546 88.19 273.546 88.495 275.381C88.801 277.216 85.743 279.204 85.743 279.204C85.743 279.204 98.129 275.84 101.034 273.394C103.939 270.947 106.386 269.265 105.468 268.042C104.55 266.819 99.81 267.889 99.81 267.889C99.81 267.889 95.375 264.219 90.177 266.36C84.978 268.501 83.143 271.406 82.226 272.171C81.309 272.935 79.78 272.782 79.78 272.782Z"
        fill="#D6EEEB" stroke="#263238" stroke-miterlimit="10" stroke-linecap="round" stroke-linejoin="round" />
    <path
        d="M58.2193 252.598C58.6783 252.445 64.9473 258.867 68.1583 264.066C71.3693 269.265 79.7793 272.782 79.7793 272.782C79.7793 272.782 68.1583 271.865 64.0293 272.018C59.9003 272.171 49.3503 274.312 45.5273 277.064"
        stroke="#263238" stroke-miterlimit="10" stroke-linecap="round" stroke-linejoin="round" />
    <path d="M82.2266 272.17C82.2266 272.17 94.5546 269.489 95.8456 271.367" stroke="#263238" stroke-miterlimit="10"
        stroke-linecap="round" stroke-linejoin="round" />
    <path
        d="M73.7868 272.422C73.7868 272.422 65.5728 269.489 61.8178 267.494C58.0628 265.499 45.9768 259.398 36.5898 259.515"
        stroke="#263238" stroke-miterlimit="10" stroke-linecap="round" stroke-linejoin="round" />
    <path
        d="M60.4937 328.332C60.4937 328.332 65.9857 320.952 64.4417 319.922C62.8967 318.892 47.4497 322.84 43.5017 324.041C39.5537 325.242 32.3447 325.414 24.2777 326.787C16.2107 328.16 15.1807 330.563 12.9497 330.735C10.7187 330.907 9.17373 330.735 7.80073 331.422C6.42773 332.109 6.42773 332.109 6.42773 332.109C6.42773 332.109 9.68873 332.967 11.2337 333.825C12.7787 334.683 17.7557 334.855 18.2707 335.541C18.7857 336.228 26.1657 339.489 34.9197 341.72C43.6737 343.951 55.8597 335.026 59.2927 332.966C62.7257 330.906 65.6437 329.19 65.9867 327.474C66.3297 325.757 60.4937 328.332 60.4937 328.332Z"
        fill="#D6EEEB" stroke="#263238" stroke-miterlimit="10" stroke-linecap="round" stroke-linejoin="round" />
    <path
        d="M60.4937 328.332C60.4937 328.332 57.0607 331.936 55.3447 332.28C53.6287 332.623 43.1587 335.37 35.0917 335.37C27.0247 335.37 13.6367 333.139 13.6367 333.139"
        stroke="#263238" stroke-miterlimit="10" stroke-linecap="round" stroke-linejoin="round" />
    <path d="M52.084 324.898C52.084 324.898 54.144 328.674 55.517 329.876C56.89 331.078 56.89 331.078 56.89 331.078"
        stroke="#263238" stroke-miterlimit="10" stroke-linecap="round" stroke-linejoin="round" />
    <path
        d="M52.2546 333.137C52.2546 333.137 45.2176 329.018 41.6126 328.159C38.0086 327.301 35.4336 327.301 35.4336 327.301"
        stroke="#263238" stroke-miterlimit="10" stroke-linecap="round" stroke-linejoin="round" />
    <path
        d="M41.6133 335.369C41.6133 335.369 37.4943 333.138 30.9713 331.936C24.4493 330.735 22.9043 330.391 22.9043 330.391"
        stroke="#263238" stroke-miterlimit="10" stroke-linecap="round" stroke-linejoin="round" />
    <path d="M50.8816 333.48C50.8816 333.48 47.1056 337.256 42.6426 338.458" stroke="#263238" stroke-miterlimit="10"
        stroke-linecap="round" stroke-linejoin="round" />
    <path
        d="M104.488 306.776C104.488 306.776 111.566 301.664 109.01 300.288C106.454 298.912 90.3316 302.647 74.4056 305.203C58.4796 307.759 53.9576 311.298 51.2046 314.051C48.4516 316.804 48.0586 320.933 48.0586 320.933C48.0586 320.933 53.3676 321.523 54.3506 322.113C55.3336 322.703 56.5136 318.181 65.3606 313.659C74.2086 309.137 80.1066 306.188 76.1746 310.906C72.2426 315.625 67.3266 320.737 63.7876 321.72C60.2486 322.703 60.2486 322.703 60.2486 322.703C60.2486 322.703 69.4896 326.045 71.4556 325.062C73.4216 324.079 86.0046 307.367 87.5776 307.563C89.1506 307.76 89.3476 308.939 86.5946 312.282C83.8416 315.624 78.1406 320.147 78.1406 320.147C78.1406 320.147 90.5276 320.54 91.1176 319.557C91.7076 318.574 99.1786 305.991 99.7686 308.547C100.359 311.103 99.7686 311.89 98.5886 313.463C97.4086 315.036 94.8526 317.985 94.8526 317.985C94.8526 317.985 117.857 321.524 118.25 319.361C118.643 317.198 116.874 312.676 112.745 310.71C108.617 308.742 104.488 306.776 104.488 306.776Z"
        fill="#D6EEEB" stroke="#263238" stroke-miterlimit="10" stroke-linecap="round" stroke-linejoin="round" />
    <path d="M104.487 306.776C104.487 306.776 91.7069 304.417 84.6289 305.4" stroke="#263238" stroke-miterlimit="10"
        stroke-linecap="round" stroke-linejoin="round" />
    <path
        d="M70.7222 417.035C70.7032 416.978 68.7832 411.199 65.0442 398.114C61.2872 384.961 60.0462 371.805 60.0332 371.674L61.9852 371.494C61.9962 371.624 63.2222 384.606 66.9292 397.575C70.6532 410.611 72.5622 416.358 72.5802 416.415L70.7222 417.035Z"
        fill="#263238" />
    <path
        d="M79.714 367.529C79.714 367.529 76.765 359.468 70.866 359.664C64.968 359.861 63.395 369.298 66.934 377.556C70.473 385.814 78.927 390.729 83.253 393.285C87.579 395.841 97.213 401.936 98.786 403.312C100.359 404.688 101.145 398.397 103.308 393.285C105.471 388.173 106.847 372.247 102.128 364.579C97.409 356.911 87.775 351.013 83.843 354.158C79.91 357.305 79.714 367.529 79.714 367.529Z"
        fill="#D6EEEB" stroke="#263238" stroke-miterlimit="10" stroke-linecap="round" stroke-linejoin="round" />
    <path
        d="M80.8921 369.889C80.8921 369.889 80.1061 372.052 84.6281 377.557C89.1501 383.062 96.4251 388.764 97.2111 394.859"
        stroke="#263238" stroke-miterlimit="10" stroke-linecap="round" stroke-linejoin="round" />
    <path d="M82.6621 369.3C82.6621 369.3 96.8181 367.137 100.751 369.103" stroke="#263238" stroke-miterlimit="10"
        stroke-linecap="round" stroke-linejoin="round" />
    <path d="M80.4993 372.248C80.4993 372.248 75.1903 376.967 74.4043 381.685" stroke="#263238" stroke-miterlimit="10"
        stroke-linecap="round" stroke-linejoin="round" />
    <path d="M85.8082 379.523C85.8082 379.523 84.0382 384.242 84.4322 387.584" stroke="#263238" stroke-miterlimit="10"
        stroke-linecap="round" stroke-linejoin="round" />
    <path d="M90.7246 383.455C90.7246 383.455 98.1956 384.045 99.5726 387.387" stroke="#263238" stroke-miterlimit="10"
        stroke-linecap="round" stroke-linejoin="round" />
    <path
        d="M59.4618 368.317C59.4618 368.317 64.5738 365.761 61.8208 362.419C59.0678 359.077 54.1528 360.453 49.4338 362.026C44.7148 363.599 45.1078 365.172 32.1318 365.368C19.1548 365.565 14.6328 367.924 14.6328 367.924C14.6328 367.924 21.3178 367.924 25.4468 371.07C29.5758 374.216 50.8098 377.755 56.1188 378.541C61.4278 379.327 68.7018 376.378 69.4888 372.053C70.2758 367.727 59.4618 368.317 59.4618 368.317Z"
        fill="#D6EEEB" stroke="#263238" stroke-miterlimit="10" stroke-linecap="round" stroke-linejoin="round" />
    <path
        d="M23.875 368.119C23.875 368.119 25.645 368.905 36.655 369.889C47.665 370.872 57.103 369.103 57.103 369.103C57.103 369.103 51.74 366.779 47.792 365.92"
        stroke="#263238" stroke-miterlimit="10" stroke-linecap="round" stroke-linejoin="round" />
    <path
        d="M39.5521 367.637C39.5521 367.637 45.7311 369.01 48.4771 370.383C48.4771 370.383 42.9851 372.443 37.6641 371.928"
        stroke="#263238" stroke-miterlimit="10" stroke-linecap="round" stroke-linejoin="round" />
    <path d="M57.1028 369.104C57.1028 369.104 54.6578 373.645 52.4258 374.503" stroke="#263238" stroke-miterlimit="10"
        stroke-linecap="round" stroke-linejoin="round" />
    <path
        d="M42.3278 413.586H99.7648C99.7648 413.586 106.798 433.279 103.985 446.407C101.172 459.535 91.7938 472.898 91.7938 472.898H51.7058C51.7058 472.898 38.1088 458.128 37.8738 441.483C37.6388 424.84 42.3278 413.586 42.3278 413.586Z"
        fill="#263238" stroke="#263238" stroke-miterlimit="10" stroke-linecap="round" stroke-linejoin="round" />
    <path d="M302.785 473.174H294.495L292.164 308.139H305.116L302.785 473.174Z" fill="white" stroke="#263238"
        stroke-miterlimit="10" stroke-linecap="round" stroke-linejoin="round" />
    <path d="M298.873 473.174H302.785L305.116 308.145L304.637 308.139H298.684L298.873 473.174Z" fill="#263238"
        stroke="#263238" stroke-miterlimit="10" stroke-linecap="round" stroke-linejoin="round" />
    <path d="M190.535 473.174H182.246L179.914 308.139H192.867L190.535 473.174Z" fill="white" stroke="#263238"
        stroke-miterlimit="10" stroke-linecap="round" stroke-linejoin="round" />
    <path d="M186.623 473.174H190.535L192.867 308.145L192.388 308.139H186.434L186.623 473.174Z" fill="#263238"
        stroke="#263238" stroke-miterlimit="10" stroke-linecap="round" stroke-linejoin="round" />
    <path
        d="M167.822 433.73C167.822 433.73 160.391 442.537 157.364 444.739C154.337 446.941 142.502 454.096 137.824 455.197C133.145 456.298 118.008 457.949 117.183 462.077C116.357 466.205 123.238 470.609 126.54 471.71C129.842 472.811 159.566 476.664 170.85 475.013C182.134 473.362 192.042 469.509 194.794 469.233C197.546 468.958 204.977 468.407 206.904 465.655C208.831 462.903 205.803 441.986 205.803 441.986L167.822 433.73Z"
        fill="#919191" stroke="#263238" stroke-miterlimit="10" stroke-linecap="round" stroke-linejoin="round" />
    <path
        d="M206.903 465.656C207.363 464.999 207.538 463.303 207.542 461.109C202.281 462.472 192.818 465.62 186.537 468.133C178.28 471.436 167.547 474.188 144.153 470.61C127.534 468.068 120.365 465.806 117.604 464.708C119.13 467.925 123.937 470.844 126.539 471.711C129.842 472.812 159.565 476.665 170.849 475.014C182.133 473.363 192.041 469.51 194.793 469.234C197.546 468.959 204.977 468.408 206.903 465.656Z"
        fill="#919191" stroke="#263238" stroke-miterlimit="10" stroke-linecap="round" stroke-linejoin="round" />
    <path d="M280.203 303.498H170V311.311H280.203V303.498Z" fill="white" stroke="#263238" stroke-miterlimit="10"
        stroke-linecap="round" stroke-linejoin="round" />
    <path d="M280.204 303.498H188.508V311.311H280.204V303.498Z" fill="white" stroke="#263238" stroke-miterlimit="10"
        stroke-linecap="round" stroke-linejoin="round" />
    <path
        d="M286.194 228.187L272.293 240.781C272.293 240.781 266.829 241.757 266.048 243.708C265.267 245.66 264.292 248.587 264.292 248.587L249.406 267.865C249.406 267.865 224.255 276.003 217.229 281.077C210.203 286.151 210.594 293.567 213.326 298.446C216.058 303.325 232.647 304.496 241.234 302.74C249.821 300.984 257.134 294.472 270.147 275.52C275.479 267.754 292.981 246.637 293.956 241.758C294.932 236.878 293.264 227.888 286.194 228.187Z"
        fill="#D6EEEB" stroke="#263238" stroke-miterlimit="10" stroke-linecap="round" stroke-linejoin="round" />
    <path
        d="M223.1 279.191C223.1 279.191 228.76 278.605 232.468 286.802C236.176 294.999 232.858 301.439 228.955 302.805"
        stroke="#263238" stroke-miterlimit="10" stroke-linecap="round" stroke-linejoin="round" />
    <path d="M251.525 268.242C251.525 268.242 261.868 275.658 263.039 286.782" stroke="#263238" stroke-miterlimit="10"
        stroke-linecap="round" stroke-linejoin="round" />
    <path d="M259.797 260.822C259.797 260.822 263.895 270.385 262.529 276.044" stroke="#263238" stroke-miterlimit="10"
        stroke-linecap="round" stroke-linejoin="round" />
    <path d="M269.618 256.846C269.471 259.664 269.615 262.397 270.342 264.396" stroke="#263238" stroke-miterlimit="10"
        stroke-linecap="round" stroke-linejoin="round" />
    <path d="M271.708 243.904C271.708 243.904 270.592 248.132 269.971 253.012" stroke="#263238" stroke-miterlimit="10"
        stroke-linecap="round" stroke-linejoin="round" />
    <path
        d="M220.008 284.455C220.008 284.455 212.329 283.541 207.94 284.638C203.552 285.735 194.958 286.832 192.947 289.94C190.936 293.048 179.051 301.642 183.622 302.922C188.193 304.202 197.884 303.836 201.358 303.105C204.832 302.374 211.414 298.351 211.414 298.351C211.414 298.351 204.283 303.653 206.843 304.202C209.403 304.751 216.168 302.008 216.168 302.008C216.168 302.008 224.825 301.65 225.127 294.694C225.31 290.489 222.75 286.1 220.008 284.455Z"
        fill="white" stroke="#263238" stroke-miterlimit="10" stroke-linecap="round" stroke-linejoin="round" />
    <path
        d="M197.518 303.836C197.518 303.836 194.958 303.47 196.055 302.19C197.152 300.91 199.895 299.996 200.809 299.265C201.723 298.534 207.574 291.768 207.574 291.768"
        fill="white" />
    <path
        d="M197.518 303.836C197.518 303.836 194.958 303.47 196.055 302.19C197.152 300.91 199.895 299.996 200.809 299.265C201.723 298.534 207.574 291.768 207.574 291.768"
        stroke="#263238" stroke-miterlimit="10" stroke-linecap="round" stroke-linejoin="round" />
    <path
        d="M200.262 290.854L195.325 296.704C195.325 296.704 188.926 300.179 188.743 301.276C188.56 302.373 190.206 303.104 190.206 303.104"
        fill="white" />
    <path
        d="M200.262 290.854L195.325 296.704C195.325 296.704 188.926 300.179 188.743 301.276C188.56 302.373 190.206 303.104 190.206 303.104"
        stroke="#263238" stroke-miterlimit="10" stroke-linecap="round" stroke-linejoin="round" />
    <path
        d="M183.623 302.922C183.623 302.922 183.806 299.997 186.183 298.899C188.56 297.802 191.12 295.242 191.668 294.694C192.217 294.146 196.605 290.123 196.605 290.123"
        fill="white" />
    <path
        d="M183.623 302.922C183.623 302.922 183.806 299.997 186.183 298.899C188.56 297.802 191.12 295.242 191.668 294.694C192.217 294.146 196.605 290.123 196.605 290.123"
        stroke="#263238" stroke-miterlimit="10" stroke-linecap="round" stroke-linejoin="round" />
    <path d="M211.414 298.35L214.523 295.424L216.534 292.133" fill="white" />
    <path d="M211.414 298.35L214.523 295.424L216.534 292.133" stroke="#263238" stroke-miterlimit="10"
        stroke-linecap="round" stroke-linejoin="round" />
    <path
        d="M336.322 209.688C336.322 209.688 408.158 202.988 414.485 205.966C420.813 208.944 428.257 214.155 429.373 219.365C430.49 224.576 398.108 359.314 396.619 363.036C395.13 366.758 388.058 367.13 382.103 367.13C376.148 367.13 282.352 365.641 282.352 365.641L336.322 209.688Z"
        fill="#7D7D7D" stroke="#263238" stroke-miterlimit="10" stroke-linecap="round" stroke-linejoin="round" />
    <path
        d="M401.328 251.487C398.232 241.315 389.386 235.565 386.186 233.25C382.985 230.935 376.118 222.297 376.118 217.874C376.118 214.3 378.427 208.419 379.314 206.293C358.513 207.62 336.324 209.689 336.324 209.689L282.354 365.643C282.354 365.643 348.843 366.698 373.413 367.032C376.447 364.369 378.583 360.913 380.541 357.192C384.964 348.789 404.424 261.66 401.328 251.487Z"
        fill="#263238" stroke="#263238" stroke-miterlimit="10" stroke-linecap="round" stroke-linejoin="round" />
    <path
        d="M429.374 219.365C428.316 214.426 421.575 209.491 415.486 206.453C417.243 207.601 420.369 211.21 416.719 221.598C411.88 235.37 381.353 352.761 377.265 360.059C373.76 366.317 364.238 365.642 364.238 365.642L363.779 366.895C373.525 367.036 380.604 367.131 382.104 367.131C388.059 367.131 395.131 366.759 396.62 363.037C398.109 359.314 430.49 224.576 429.374 219.365Z"
        fill="#474747" stroke="#263238" stroke-miterlimit="10" stroke-linecap="round" stroke-linejoin="round" />
    <path d="M399.021 395.939H188.203V417.213H399.021V395.939Z" fill="white" stroke="#263238" stroke-miterlimit="10"
        stroke-linecap="round" stroke-linejoin="round" />
    <path d="M399.02 395.939H298.336V417.213H399.02V395.939Z" fill="#263238" stroke="#263238" stroke-miterlimit="10"
        stroke-linecap="round" stroke-linejoin="round" />
    <path
        d="M393.276 396.822H192.134C188.962 396.822 186.391 394.251 186.391 391.079V370.827C186.391 367.655 188.962 365.084 192.134 365.084H393.276C396.448 365.084 399.019 367.655 399.019 370.827V391.079C399.019 394.25 396.448 396.822 393.276 396.822Z"
        fill="#7D7D7D" stroke="#263238" stroke-miterlimit="10" stroke-linecap="round" stroke-linejoin="round" />
    <path
        d="M393.275 396.822H304.366C301.194 396.822 298.623 394.251 298.623 391.079V370.827C298.623 367.655 301.194 365.084 304.366 365.084H393.275C396.447 365.084 399.018 367.655 399.018 370.827V391.079C399.018 394.25 396.447 396.822 393.275 396.822Z"
        fill="#474747" stroke="#263238" stroke-miterlimit="10" stroke-linecap="round" stroke-linejoin="round" />
    <path
        d="M307.082 365.753C307.082 365.753 263.873 370.432 245.984 370.157C228.095 369.882 228.095 369.882 228.095 369.882L206.628 433.182C206.628 433.182 208.555 436.485 208.555 437.585C208.555 438.686 207.729 443.64 207.729 443.64C207.729 443.64 182.409 440.062 179.106 439.236C175.803 438.41 166.996 435.933 166.996 435.933C166.996 435.933 168.097 427.126 169.198 425.475C170.299 423.824 176.078 418.044 176.629 416.668C177.179 415.292 200.022 336.029 202.775 330.8C205.527 325.571 214.059 318.69 218.462 318.415C222.865 318.14 280.386 335.479 280.386 335.479C280.386 335.479 313.688 348.689 307.082 365.753Z"
        fill="#263238" stroke="#263238" stroke-miterlimit="10" stroke-linecap="round" stroke-linejoin="round" />
    <path
        d="M256.831 296.281L247.086 308.232C247.086 308.232 235.802 331.625 244.059 336.855C252.316 342.084 260.847 349.24 285.342 354.744C309.836 360.248 321.12 355.57 327.175 348.689C333.23 341.809 324.148 325.571 315.616 317.865C307.084 310.159 270.755 296.398 264.701 295.572C258.645 294.747 256.831 296.281 256.831 296.281Z"
        fill="#263238" stroke="#263238" stroke-miterlimit="10" stroke-linecap="round" stroke-linejoin="round" />
    <path
        d="M250.502 298.813C250.502 298.813 267.209 298.813 275.31 302.863C283.411 306.913 297.839 313.495 297.839 313.495C297.839 313.495 323.153 259.323 330.494 252.489C337.835 245.654 351.251 228.441 352.011 224.897C352.77 221.353 350.999 220.847 348.72 221.1C346.442 221.353 316.318 221.859 316.318 221.859C316.318 221.859 301.383 240.085 298.851 244.894C296.32 249.704 292.016 258.817 288.979 262.614C285.941 266.411 258.856 287.421 255.818 290.965C252.78 294.509 250.502 298.813 250.502 298.813Z"
        fill="#BFBFBF" stroke="#263238" stroke-miterlimit="10" stroke-linecap="round" stroke-linejoin="round" />
    <path d="M283.104 274.047C283.104 274.047 298.086 276.819 304.353 284.348" stroke="#263238" stroke-miterlimit="10"
        stroke-linecap="round" stroke-linejoin="round" />
    <path d="M293.01 273.387C293.01 273.387 302.035 276.249 306.438 281.091" stroke="#263238" stroke-miterlimit="10"
        stroke-linecap="round" stroke-linejoin="round" />
    <path d="M152.586 387.842L177.447 407.907L181.937 398.928L152.586 387.842Z" fill="#263238" stroke="#263238"
        stroke-miterlimit="10" stroke-linecap="round" stroke-linejoin="round" />
    <path
        d="M181.033 392.725C181.033 392.725 168.924 417.77 165.896 421.072C162.869 424.375 151.585 425.751 144.979 425.751C138.374 425.751 116.356 422.724 114.98 423.274C113.604 423.824 112.228 429.879 112.778 432.631C113.328 435.383 128.19 444.741 140.3 449.419C152.41 454.098 157.363 454.098 161.492 454.923C165.62 455.749 173.602 463.455 186.262 462.904C188.797 462.794 193.968 459.051 194.519 448.593C195.069 438.135 194.244 425.475 194.519 424.099C194.794 422.723 199.473 407.861 199.473 407.861L181.033 392.725Z"
        fill="white" stroke="#263238" stroke-miterlimit="10" stroke-linecap="round" stroke-linejoin="round" />
    <path
        d="M114.98 423.272C113.604 423.822 112.228 429.877 112.778 432.629C113.328 435.381 128.19 444.738 140.3 449.417C152.41 454.096 157.363 454.096 161.492 454.921C165.62 455.747 173.602 463.453 186.262 462.902C188.797 462.792 193.968 459.049 194.519 448.591C194.843 442.441 194.69 435.531 194.566 430.601C193.768 430.267 190.905 429.26 187.638 430.427C183.785 431.803 176.079 432.078 171.951 430.427C167.823 428.776 167.823 428.776 167.823 428.776C167.823 428.776 173.052 425.749 170.3 423.822C167.548 421.895 165.896 421.07 165.896 421.07C162.869 424.373 151.585 425.749 144.98 425.749C138.374 425.749 116.356 422.722 114.98 423.272Z"
        fill="#919191" stroke="#263238" stroke-miterlimit="10" stroke-linecap="round" stroke-linejoin="round" />
    <path
        d="M186.262 462.906C187.402 462.857 189.074 462.063 190.62 460.264C181.983 458.488 170.022 454.799 165.621 452.998C159.566 450.521 154.888 450.796 143.879 446.943C134.908 443.803 118.449 434.269 112.66 430.846C112.644 431.515 112.679 432.129 112.779 432.632C113.329 435.384 128.191 444.741 140.301 449.42C152.411 454.099 157.364 454.099 161.493 454.924C165.62 455.75 173.602 463.456 186.262 462.906Z"
        fill="#919191" stroke="#263238" stroke-miterlimit="10" stroke-linecap="round" stroke-linejoin="round" />
    <path
        d="M328.637 365.084H347.797C348.643 361.935 348.269 359.022 347.539 357.772C345.612 354.469 308.183 323.094 306.531 322.269C304.879 321.444 298.825 318.966 298.825 318.966L285.89 318.416C285.89 318.416 213.776 293.742 204.425 291.995C195.074 290.248 185.435 311.811 185.435 313.462C185.435 315.113 152.584 387.842 152.584 387.842L199.471 410.614L225.066 346.763L229.47 345.387L232.497 339.332C232.497 339.332 246.312 354.223 272.081 365.084H328.637Z"
        fill="#263238" stroke="#263238" stroke-miterlimit="10" stroke-linecap="round" stroke-linejoin="round" />
    <path d="M298.053 327.676C298.053 327.676 318.066 338.068 324.994 358.466" stroke="#707070" stroke-miterlimit="10"
        stroke-linecap="round" stroke-linejoin="round" />
    <path d="M327.174 348.688C327.174 348.688 333.462 353.462 335.772 361.544" stroke="#707070" stroke-miterlimit="10"
        stroke-linecap="round" stroke-linejoin="round" />
    <path
        d="M355.808 215.276C355.808 215.276 359.858 213.251 361.883 214.01C363.908 214.769 365.933 221.604 365.933 221.604C365.933 221.604 371.502 222.617 376.058 224.135C380.615 225.654 385.424 228.185 386.184 233.248C386.943 238.311 365.788 308.137 365.535 309.403C365.282 310.669 360.87 341.085 360.87 344.123C360.87 347.161 358.339 348.426 358.339 348.426C358.339 348.426 363.908 354.248 361.377 356.273C358.846 358.298 352.264 362.348 349.733 361.336C347.202 360.323 316.572 336.275 308.978 328.934C301.384 321.593 288.727 323.871 295.309 311.214C301.89 298.557 312.775 283.622 317.332 270.712C321.889 257.802 338.342 239.829 340.115 236.538C341.885 233.249 355.808 215.276 355.808 215.276Z"
        fill="#D6EEEB" stroke="#263238" stroke-miterlimit="10" stroke-linecap="round" stroke-linejoin="round" />
    <path d="M330.997 268.262C325.564 272.189 320.088 276.075 320.088 276.075" stroke="#263238" stroke-miterlimit="10"
        stroke-linecap="round" stroke-linejoin="round" />
    <path
        d="M363.852 222.885C363.852 222.885 352.069 245.777 350.386 246.451C348.703 247.124 335.237 248.134 335.237 248.134C335.237 248.134 342.307 259.243 341.633 260.254C341.373 260.643 338.11 263.085 334.199 265.939"
        stroke="#263238" stroke-miterlimit="10" stroke-linecap="round" stroke-linejoin="round" />
    <path d="M346.822 340.486C340.817 336.452 332.689 331.465 327.156 329.939" stroke="#263238" stroke-miterlimit="10"
        stroke-linecap="round" stroke-linejoin="round" />
    <path d="M354.763 346.099C354.763 346.099 353.849 345.409 352.322 344.311" stroke="#263238" stroke-miterlimit="10"
        stroke-linecap="round" stroke-linejoin="round" />
    <path
        d="M318.343 222.111C318.343 222.111 308.219 234.009 299.359 249.197C290.499 264.385 288.98 266.157 288.98 266.157C288.98 266.157 272.272 283.877 267.969 286.408C263.666 288.939 259.109 292.99 256.831 296.28C254.553 299.571 248.984 305.646 248.984 305.646L245.188 304.38C245.188 304.38 247.465 290.711 252.781 286.66C258.097 282.609 273.286 265.396 273.286 265.396C273.286 265.396 283.411 244.892 283.411 243.373C283.411 241.854 281.64 231.222 286.196 228.185C290.753 225.147 300.877 221.097 307.205 220.338C313.533 219.578 319.356 219.578 319.356 219.578L318.343 222.111Z"
        fill="#D6EEEB" stroke="#263238" stroke-miterlimit="10" stroke-linecap="round" stroke-linejoin="round" />
    <path
        d="M302.456 228.48C298.963 232.057 295.681 235.844 296.522 236.686C298.205 238.369 300.225 240.726 300.225 240.726C300.225 240.726 291.472 245.102 290.125 248.132C288.778 251.162 283.055 266.648 283.055 266.648L273.965 276.074"
        stroke="#263238" stroke-miterlimit="10" stroke-linecap="round" stroke-linejoin="round" />
    <path d="M309.652 221.539C309.652 221.539 307.721 223.295 305.332 225.618" stroke="#263238" stroke-miterlimit="10"
        stroke-linecap="round" stroke-linejoin="round" />
    <path
        d="M318.344 222.112C318.344 222.112 312.775 226.162 311.256 229.706C309.737 233.25 308.725 236.541 308.725 236.541C308.725 236.541 321.382 233.25 323.407 233.25C325.432 233.25 331.76 243.375 331.76 243.375C331.76 243.375 346.948 232.996 349.227 227.681C351.505 222.365 346.442 220.34 346.442 220.34C346.442 220.34 329.735 215.53 318.344 222.112Z"
        fill="white" stroke="#263238" stroke-miterlimit="10" stroke-linecap="round" stroke-linejoin="round" />
    <path
        d="M322.064 228.073C322.064 228.073 317.429 239.56 319.119 239.349C320.809 239.138 333.693 231.534 336.227 229.633C338.762 227.732 339.818 226.465 339.818 226.465L322.064 228.073Z"
        fill="white" stroke="#263238" stroke-miterlimit="10" stroke-linecap="round" stroke-linejoin="round" />
    <path
        d="M321.886 168.295C321.886 168.295 317.438 169.718 316.371 172.921C315.303 176.123 316.371 177.369 316.371 177.369L321.886 168.295Z"
        fill="white" stroke="#9E9E9E" stroke-miterlimit="10" stroke-linecap="round" stroke-linejoin="round" />
    <path
        d="M321.886 168.295C321.886 168.295 317.616 173.099 315.837 181.105C314.058 189.111 314.769 201.92 314.592 208.325C314.414 214.73 311.567 223.091 322.064 228.073C332.561 233.054 343.591 226.294 348.039 223.803C352.487 221.312 358.148 219.829 358.183 214.361C358.313 194.449 367.145 198.392 367.253 194.27C367.376 189.592 364.584 188.755 364.584 188.755C364.584 188.755 365.118 176.479 358.179 169.541C351.24 162.602 340.388 159.934 333.272 160.823C326.155 161.713 319.929 163.847 321.886 168.295Z"
        fill="white" stroke="#263238" stroke-miterlimit="10" stroke-linecap="round" stroke-linejoin="round" />
    <path d="M323.77 178.165C323.77 178.165 321.177 177.097 317.516 178.47" stroke="#263238" stroke-width="0.75"
        stroke-miterlimit="10" stroke-linecap="round" stroke-linejoin="round" />
    <path
        d="M320.262 175.723C320.262 175.723 324.228 176.791 327.737 176.028C331.245 175.265 333.991 174.655 335.364 175.113"
        stroke="#263238" stroke-width="0.75" stroke-miterlimit="10" stroke-linecap="round" stroke-linejoin="round" />
    <path
        d="M364.585 188.755C364.585 188.755 365.119 176.479 358.18 169.541C351.241 162.602 340.389 159.934 333.273 160.823C326.157 161.712 319.93 163.847 321.887 168.295C321.887 168.295 322.065 168.829 324.556 168.651C327.047 168.473 333.807 165.805 340.034 167.228C346.261 168.651 346.439 171.676 348.04 172.565C349.641 173.455 356.046 174.878 356.046 174.878L349.463 175.234C349.463 175.234 346.438 181.105 348.395 184.13C350.352 187.154 353.732 188.934 353.732 188.934C353.732 188.934 354.621 191.247 354.266 193.204C353.91 195.161 352.309 204.59 350.886 206.725C349.463 208.86 346.438 213.13 343.058 214.019C339.678 214.908 338.966 203.522 327.936 203.7C323.081 203.778 323.132 202.988 323.132 202.988C323.132 202.988 317.795 204.945 316.905 206.012C316.016 207.079 314.592 208.325 314.592 208.325C314.414 214.73 311.568 223.091 322.064 228.073C332.561 233.054 343.591 226.294 348.039 223.803C349.801 222.816 356.136 221.192 357.812 215.347C358.439 213.161 355.47 202.081 355.788 199.535C356.767 191.705 357.938 191.952 357.938 191.06C357.939 189.103 364.585 188.755 364.585 188.755Z"
        fill="white" stroke="#9E9E9E" stroke-miterlimit="10" stroke-linecap="round" stroke-linejoin="round" />
    <path
        d="M356.701 197.552C356.869 196.359 357.222 195.026 357.824 193.559C357.824 193.559 360.671 186.087 364.585 188.755C368.499 191.423 367.076 196.583 366.008 198.54C364.94 200.497 360.893 204.813 359.292 204.635"
        fill="white" />
    <path
        d="M356.701 197.552C356.869 196.359 357.222 195.026 357.824 193.559C357.824 193.559 360.671 186.087 364.585 188.755C368.499 191.423 367.076 196.583 366.008 198.54C364.94 200.497 360.893 204.813 359.292 204.635"
        stroke="#263238" stroke-miterlimit="10" stroke-linecap="round" stroke-linejoin="round" />
    <path
        d="M323.31 187.865C323.31 187.865 324.199 187.865 322.954 190.356C321.709 192.847 318.684 199.963 320.285 201.386C321.886 202.809 328.291 203.521 328.825 202.098C329.359 200.675 328.825 199.785 328.825 199.785"
        stroke="#263238" stroke-miterlimit="10" stroke-linecap="round" stroke-linejoin="round" />
    <path
        d="M334.518 191.247C334.518 192.623 333.881 193.738 333.095 193.738C332.309 193.738 331.672 192.623 331.672 191.247C331.672 189.871 332.309 188.756 333.095 188.756C333.881 188.756 334.518 189.871 334.518 191.247Z"
        fill="#263238" />
    <path
        d="M319.93 191.425C319.93 192.801 319.293 193.916 318.507 193.916C317.721 193.916 317.084 192.801 317.084 191.425C317.084 190.049 317.721 188.934 318.507 188.934C319.292 188.934 319.93 190.049 319.93 191.425Z"
        fill="#263238" />
    <path d="M330.07 194.27C330.07 194.27 330.604 196.405 333.984 197.65" stroke="#263238" stroke-miterlimit="10"
        stroke-linecap="round" stroke-linejoin="round" />
    <path
        d="M338.079 187.335C337.753 187.335 337.432 187.187 337.221 186.907C334.476 183.248 329.491 184.443 329.442 184.456C328.87 184.601 328.286 184.25 328.144 183.677C328 183.103 328.349 182.521 328.923 182.378C329.183 182.314 335.346 180.836 338.934 185.621C339.29 186.094 339.193 186.766 338.72 187.12C338.527 187.266 338.303 187.335 338.079 187.335Z"
        fill="white" stroke="#9E9E9E" stroke-miterlimit="10" stroke-linecap="round" stroke-linejoin="round" />
    <path
        d="M316.904 186.801C316.67 186.801 316.433 186.724 316.236 186.566C315.775 186.196 315.699 185.522 316.07 185.06C318.186 182.415 321.345 183.016 322.722 183.704C323.251 183.969 323.466 184.612 323.201 185.141C322.937 185.669 322.301 185.884 321.768 185.622C321.514 185.497 319.271 184.487 317.741 186.399C317.529 186.664 317.219 186.801 316.904 186.801Z"
        fill="white" stroke="#9E9E9E" stroke-miterlimit="10" stroke-linecap="round" stroke-linejoin="round" />
    <path d="M319.752 209.037C319.752 209.037 325.801 212.595 333.985 209.215" stroke="#263238" stroke-miterlimit="10"
        stroke-linecap="round" stroke-linejoin="round" />
    <path d="M330.604 178.615C330.604 178.615 337.187 176.836 340.923 180.394" stroke="#263238" stroke-width="0.75"
        stroke-miterlimit="10" stroke-linecap="round" stroke-linejoin="round" />
    <path d="M339.322 176.658C339.322 176.658 341.457 177.014 342.88 179.149" stroke="#263238" stroke-width="0.75"
        stroke-miterlimit="10" stroke-linecap="round" stroke-linejoin="round" />
    <path d="M321.353 194.449C321.353 194.449 318.506 196.762 316.727 196.762" stroke="#263238" stroke-miterlimit="10"
        stroke-linecap="round" stroke-linejoin="round" />
    <path d="M219.156 314.205L221.08 327.291C221.08 327.291 217.134 314.271 209.152 312.189" stroke="#707070"
        stroke-miterlimit="10" stroke-linecap="round" stroke-linejoin="round" />
    <path d="M225.115 311.842C225.115 311.842 231.709 316.7 236.09 325.752" stroke="#707070" stroke-miterlimit="10"
        stroke-linecap="round" stroke-linejoin="round" />
    <path d="M317.984 473.174H309.695L307.363 308.139H320.315L317.984 473.174Z" fill="white" stroke="#263238"
        stroke-miterlimit="10" stroke-linecap="round" stroke-linejoin="round" />
    <path d="M314.072 473.174H317.984L320.315 308.145L319.836 308.139H313.883L314.072 473.174Z" fill="#263238"
        stroke="#263238" stroke-miterlimit="10" stroke-linecap="round" stroke-linejoin="round" />
    <path d="M403.41 473.174H395.12L392.789 308.139H405.741L403.41 473.174Z" fill="white" stroke="#263238"
        stroke-miterlimit="10" stroke-linecap="round" stroke-linejoin="round" />
    <path d="M399.498 473.174H403.409L405.741 308.145L405.262 308.139H399.309L399.498 473.174Z" fill="#263238"
        stroke="#263238" stroke-miterlimit="10" stroke-linecap="round" stroke-linejoin="round" />
    <path
        d="M320.431 283.232C320.431 283.232 306.04 283.458 304.353 284.347C302.666 285.236 293.701 294.777 290.734 296.668C287.767 298.558 285.038 310.038 284.331 311.809C283.624 313.58 285.291 317.359 286.551 318.493C287.811 319.627 289.946 322.181 291.402 321.971C292.858 321.761 291.654 319.157 291.654 319.157C291.654 319.157 295.42 322.292 296.561 321.165C297.702 320.038 296.589 319.163 296.281 318.379C295.973 317.595 294.559 316.069 294.559 316.069L297.848 307.627C297.848 307.627 302.551 305.779 306.982 303.811C311.412 301.844 314.24 299.827 314.625 299.54C315.01 299.253 319.923 298.86 319.923 298.86L320.431 283.232Z"
        fill="white" stroke="#263238" stroke-miterlimit="10" stroke-linecap="round" stroke-linejoin="round" />
    <path d="M291.655 319.156L289.811 315.22L292.446 305.896" fill="white" />
    <path d="M291.655 319.156L289.811 315.22L292.446 305.896" stroke="#263238" stroke-miterlimit="10"
        stroke-linecap="round" stroke-linejoin="round" />
    <path
        d="M289.12 302.164C289.12 302.164 285.583 312.904 285.665 314.463C285.747 316.022 286.551 318.493 286.551 318.493"
        fill="white" />
    <path
        d="M289.12 302.164C289.12 302.164 285.583 312.904 285.665 314.463C285.747 316.022 286.551 318.493 286.551 318.493"
        stroke="#263238" stroke-miterlimit="10" stroke-linecap="round" stroke-linejoin="round" />
    <path
        d="M373.262 227.401C373.262 227.401 384.291 225.045 389.508 232.628C394.724 240.211 395.434 277.69 394.664 287.11C393.894 296.53 383.53 306.709 383.53 306.709C383.53 306.709 383.53 306.709 373.951 307.721C364.372 308.733 341.274 303.361 341.274 303.361L317.844 301.302L317.789 280.587L337.213 279.241C337.213 279.241 338.051 275.901 342.84 275.395C347.629 274.889 354.814 276.538 354.814 276.538C354.814 276.538 355.918 273.438 356.876 272.373C357.834 271.309 359.031 269.978 359.031 269.978C359.031 269.978 355.984 269.885 355.664 263.818C355.344 257.751 365.905 236.915 369.524 233.428"
        fill="#D6EEEB" />
    <path
        d="M373.262 227.401C373.262 227.401 384.291 225.045 389.508 232.628C394.724 240.211 395.434 277.69 394.664 287.11C393.894 296.53 383.53 306.709 383.53 306.709C383.53 306.709 383.53 306.709 373.951 307.721C364.372 308.733 341.274 303.361 341.274 303.361L317.844 301.302L317.789 280.587L337.213 279.241C337.213 279.241 338.051 275.901 342.84 275.395C347.629 274.889 354.814 276.538 354.814 276.538C354.814 276.538 355.918 273.438 356.876 272.373C357.834 271.309 359.031 269.978 359.031 269.978C359.031 269.978 355.984 269.885 355.664 263.818C355.344 257.751 365.905 236.915 369.524 233.428"
        stroke="#263238" stroke-miterlimit="10" stroke-linecap="round" stroke-linejoin="round" />
    <path d="M377.977 275.557C381.906 277.738 385.23 281.27 385.23 281.27" stroke="#263238" stroke-miterlimit="10"
        stroke-linecap="round" stroke-linejoin="round" />
    <path d="M357.648 277.402C357.648 277.402 368.571 273.024 373.946 274.007" stroke="#263238" stroke-miterlimit="10"
        stroke-linecap="round" stroke-linejoin="round" />
    <path
        d="M370.293 264.825C376.371 261.968 384.037 257.76 386.317 253.837C390.268 247.038 389.19 245.827 385.984 247.517"
        stroke="#263238" stroke-miterlimit="10" stroke-linecap="round" stroke-linejoin="round" />
    <path d="M362.236 268.287C362.236 268.287 363.969 267.628 366.519 266.525" stroke="#263238" stroke-miterlimit="10"
        stroke-linecap="round" stroke-linejoin="round" />
    <path d="M337.334 281.516L337.389 301.792" stroke="#263238" stroke-miterlimit="10" stroke-linecap="round"
        stroke-linejoin="round" />
    <path d="M371.844 287.838C373.543 290.077 375.003 292.836 375.878 296.212" stroke="#263238" stroke-miterlimit="10"
        stroke-linecap="round" stroke-linejoin="round" />
    <path d="M359.512 279.078C359.512 279.078 365.081 280.65 369.889 285.571" stroke="#263238" stroke-miterlimit="10"
        stroke-linecap="round" stroke-linejoin="round" />
    <path d="M413.562 303.498H303.359V311.311H413.562V303.498Z" fill="white" stroke="#263238" stroke-miterlimit="10"
        stroke-linecap="round" stroke-linejoin="round" />
    <path d="M413.563 303.498H321.867V311.311H413.563V303.498Z" fill="#263238" stroke="#263238" stroke-miterlimit="10"
        stroke-linecap="round" stroke-linejoin="round" />
    <path d="M275.312 322.45C279.178 322.382 282.906 322.638 286.122 323.442" stroke="#707070" stroke-miterlimit="10"
        stroke-linecap="round" stroke-linejoin="round" />
    <path
        d="M204.844 386.702C209.635 365.746 217.561 332.351 219.925 329.986C223.389 326.522 242.633 326.522 250.715 325.368C254.96 324.762 261.539 323.518 268.392 322.865"
        stroke="#707070" stroke-miterlimit="10" stroke-linecap="round" stroke-linejoin="round" />
    <path d="M201.066 403.496C201.066 403.496 201.957 399.442 203.359 393.236" stroke="#707070" stroke-miterlimit="10"
        stroke-linecap="round" stroke-linejoin="round" />
    <path d="M253.023 307.279C253.023 307.279 260.721 312.282 264.184 321.904" stroke="#707070" stroke-miterlimit="10"
        stroke-linecap="round" stroke-linejoin="round" />
    <path d="M225.604 354.035L228.095 369.88L232.134 350.77" stroke="#707070" stroke-miterlimit="10"
        stroke-linecap="round" stroke-linejoin="round" />
    <path d="M181.469 334.394L186.425 320.57" stroke="#707070" stroke-miterlimit="10" stroke-linecap="round"
        stroke-linejoin="round" />
    <path d="M165.203 379.77L179.903 338.762" stroke="#707070" stroke-miterlimit="10" stroke-linecap="round"
        stroke-linejoin="round" />
    <path d="M417.593 332.34H413.09V333.978H417.593V332.34Z" fill="white" stroke="#263238" stroke-miterlimit="10"
        stroke-linecap="round" stroke-linejoin="round" />
    <path d="M422.165 332.34H417.662V333.978H422.165V332.34Z" fill="white" stroke="#263238" stroke-miterlimit="10"
        stroke-linecap="round" stroke-linejoin="round" />
    <path d="M426.737 332.34H422.234V333.978H426.737V332.34Z" fill="white" stroke="#263238" stroke-miterlimit="10"
        stroke-linecap="round" stroke-linejoin="round" />
    <path d="M431.308 332.34H426.805V333.978H431.308V332.34Z" fill="white" stroke="#263238" stroke-miterlimit="10"
        stroke-linecap="round" stroke-linejoin="round" />
    <path d="M435.88 332.34H431.377V333.978H435.88V332.34Z" fill="white" stroke="#263238" stroke-miterlimit="10"
        stroke-linecap="round" stroke-linejoin="round" />
    <path
        d="M457.674 338.02H405.161C401.954 338.02 399.501 335.164 399.985 331.994L403.768 307.21C404.158 304.653 406.357 302.764 408.944 302.764H454.644C457.29 302.764 459.52 304.738 459.841 307.365L462.871 332.148C463.253 335.269 460.818 338.02 457.674 338.02Z"
        fill="#263238" stroke="#263238" stroke-miterlimit="10" stroke-linecap="round" stroke-linejoin="round" />
    <path
        d="M454.047 338.02H401.534C398.327 338.02 395.874 335.164 396.358 331.994L400.141 307.21C400.531 304.653 402.73 302.764 405.317 302.764H451.017C453.663 302.764 455.893 304.738 456.214 307.365L459.244 332.148C459.626 335.269 457.191 338.02 454.047 338.02Z"
        fill="#D6EEEB" stroke="#263238" stroke-miterlimit="10" stroke-linecap="round" stroke-linejoin="round" />
    <path
        d="M451.075 336.025H404.507C401.663 336.025 399.488 333.492 399.917 330.681L403.272 308.703C403.618 306.435 405.568 304.76 407.862 304.76H448.389C450.735 304.76 452.713 306.511 452.998 308.84L455.685 330.818C456.022 333.585 453.863 336.025 451.075 336.025Z"
        fill="white" stroke="#263238" stroke-miterlimit="10" stroke-linecap="round" stroke-linejoin="round" />
    <path
        d="M448.598 334.362H406.984C404.443 334.362 402.499 332.099 402.882 329.587L405.88 309.947C406.189 307.921 407.932 306.424 409.982 306.424H446.197C448.294 306.424 450.061 307.988 450.316 310.07L452.717 329.71C453.019 332.182 451.089 334.362 448.598 334.362Z"
        fill="white" stroke="#263238" stroke-miterlimit="10" stroke-linecap="round" stroke-linejoin="round" />
    <path
        d="M451.672 321.176H448.811V319.211H451.431L451.366 318.675H448.811V316.71H451.125L451.06 316.175H448.811V314.21H450.82L450.755 313.674H448.812V311.709H450.515L450.449 311.173H448.812V309.208H450.105C450.041 309.024 449.968 308.843 449.88 308.672H448.812V307.367C448.643 307.229 448.466 307.101 448.276 306.991V308.673H445.81V306.424H445.275V308.673H442.81V306.424H442.275V308.673H439.81V306.424H439.275V308.673H436.81V306.424H436.275V308.673H433.809V306.424H433.274V308.673H430.809V306.424H430.274V308.673H427.809V306.424H427.274V308.673H424.808V306.424H424.272V308.673H421.807V306.424H421.272V308.673H418.807V306.424H418.272V308.673H415.807V306.424H415.272V308.673H412.799V306.424H412.264V308.673H409.799V306.441C409.618 306.449 409.438 306.459 409.264 306.49V308.674H406.799V307.916C406.483 308.295 406.23 308.73 406.063 309.21H406.264V311.175H405.692L405.61 311.711H406.263V313.676H405.31L405.228 314.212H406.263V316.177H404.928L404.846 316.712H406.263V318.677H404.546L404.464 319.213H406.262V321.178H404.164L404.082 321.714H406.262V333.614C406.262 333.761 406.382 333.882 406.53 333.882C406.678 333.882 406.798 333.762 406.798 333.614V321.714H409.263V333.614C409.263 333.761 409.383 333.882 409.531 333.882C409.678 333.882 409.799 333.762 409.799 333.614V321.714H412.264V333.614C412.264 333.761 412.384 333.882 412.532 333.882C412.68 333.882 412.8 333.762 412.8 333.614V321.714H415.266V333.614C415.266 333.761 415.386 333.882 415.534 333.882C415.682 333.882 415.802 333.762 415.802 333.614V321.714H418.267V333.614C418.267 333.761 418.387 333.882 418.535 333.882C418.682 333.882 418.803 333.762 418.803 333.614V321.714H421.268V333.614C421.268 333.761 421.388 333.882 421.536 333.882C421.684 333.882 421.804 333.762 421.804 333.614V321.714H424.269V333.614C424.269 333.761 424.389 333.882 424.537 333.882C424.684 333.882 424.805 333.762 424.805 333.614V321.714H427.271V333.614C427.271 333.761 427.391 333.882 427.539 333.882C427.686 333.882 427.807 333.762 427.807 333.614V321.714H430.272V333.614C430.272 333.761 430.392 333.882 430.54 333.882C430.687 333.882 430.808 333.762 430.808 333.614V321.714H433.273V333.614C433.273 333.761 433.393 333.882 433.541 333.882C433.688 333.882 433.809 333.762 433.809 333.614V321.714H436.275V333.614C436.275 333.761 436.395 333.882 436.543 333.882C436.691 333.882 436.811 333.762 436.811 333.614V321.714H439.276V333.614C439.276 333.761 439.396 333.882 439.544 333.882C439.691 333.882 439.812 333.762 439.812 333.614V321.714H442.277V333.614C442.277 333.761 442.397 333.882 442.545 333.882C442.693 333.882 442.813 333.762 442.813 333.614V321.714H445.278V333.614C445.278 333.761 445.398 333.882 445.546 333.882C445.693 333.882 445.814 333.762 445.814 333.614V321.714H448.28V333.614C448.28 333.761 448.4 333.882 448.548 333.882C448.696 333.882 448.816 333.762 448.816 333.614V321.714H451.742L451.672 321.176ZM409.263 321.176H406.798V319.211H409.263V321.176ZM409.263 318.675H406.798V316.71H409.263V318.675ZM409.263 316.174H406.798V314.209H409.263V316.174ZM409.263 313.674H406.798V311.709H409.263V313.674ZM409.263 311.173H406.798V309.208H409.263V311.173ZM412.264 321.176H409.799V319.211H412.264V321.176ZM412.264 318.675H409.799V316.71H412.264V318.675ZM412.264 316.174H409.799V314.209H412.264V316.174ZM412.264 313.674H409.799V311.709H412.264V313.674ZM412.264 311.173H409.799V309.208H412.264V311.173ZM415.266 321.176H412.799V319.211H415.265V321.176H415.266ZM415.266 318.675H412.799V316.71H415.265V318.675H415.266ZM415.266 316.174H412.799V314.209H415.265V316.174H415.266ZM415.266 313.674H412.799V311.709H415.265V313.674H415.266ZM415.266 311.173H412.799V309.208H415.265V311.173H415.266ZM418.266 321.176H415.801V319.211H418.266V321.176ZM418.266 318.675H415.801V316.71H418.266V318.675ZM418.266 316.174H415.801V314.209H418.266V316.174ZM418.266 313.674H415.801V311.709H418.266V313.674ZM418.266 311.173H415.801V309.208H418.266V311.173ZM421.267 321.176H418.802V319.211H421.267V321.176ZM421.267 318.675H418.802V316.71H421.267V318.675ZM421.267 316.174H418.802V314.209H421.267V316.174ZM421.267 313.674H418.802V311.709H421.267V313.674ZM421.267 311.173H418.802V309.208H421.267V311.173ZM424.268 321.176H421.803V319.211H424.268V321.176ZM424.268 318.675H421.803V316.71H424.268V318.675ZM424.268 316.174H421.803V314.209H424.268V316.174ZM424.268 313.674H421.803V311.709H424.268V313.674ZM424.268 311.173H421.803V309.208H424.268V311.173ZM427.269 321.176H424.803V319.211H427.269V321.176ZM427.269 318.675H424.803V316.71H427.269V318.675ZM427.269 316.174H424.803V314.209H427.269V316.174ZM427.269 313.674H424.803V311.709H427.269V313.674ZM427.269 311.173H424.803V309.208H427.269V311.173ZM430.27 321.176H427.805V319.211H430.27V321.176ZM430.27 318.675H427.805V316.71H430.27V318.675ZM430.27 316.174H427.805V314.209H430.27V316.174ZM430.27 313.674H427.805V311.709H430.27V313.674ZM430.27 311.173H427.805V309.208H430.27V311.173ZM433.271 321.176H430.806V319.211H433.271V321.176ZM433.271 318.675H430.806V316.71H433.271V318.675ZM433.271 316.174H430.806V314.209H433.271V316.174ZM433.271 313.674H430.806V311.709H433.271V313.674ZM433.271 311.173H430.806V309.208H433.271V311.173ZM436.272 321.176H433.806V319.211H436.272V321.176ZM436.272 318.675H433.806V316.71H436.272V318.675ZM436.272 316.174H433.806V314.209H436.272V316.174ZM436.272 313.674H433.806V311.709H436.272V313.674ZM436.272 311.173H433.806V309.208H436.272V311.173ZM439.273 321.176H436.808V319.211H439.273V321.176ZM439.273 318.675H436.808V316.71H439.273V318.675ZM439.273 316.174H436.808V314.209H439.273V316.174ZM439.273 313.674H436.808V311.709H439.273V313.674ZM439.273 311.173H436.808V309.208H439.273V311.173ZM442.274 321.176H439.809V319.211H442.274V321.176ZM442.274 318.675H439.809V316.71H442.274V318.675ZM442.274 316.174H439.809V314.209H442.274V316.174ZM442.274 313.674H439.809V311.709H442.274V313.674ZM442.274 311.173H439.809V309.208H442.274V311.173ZM445.274 321.176H442.809V319.211H445.274V321.176ZM445.274 318.675H442.809V316.71H445.274V318.675ZM445.274 316.174H442.809V314.209H445.274V316.174ZM445.274 313.674H442.809V311.709H445.274V313.674ZM445.274 311.173H442.809V309.208H445.274V311.173ZM448.276 321.176H445.81V319.211H448.276V321.176ZM448.276 318.675H445.81V316.71H448.276V318.675ZM448.276 316.174H445.81V314.209H448.276V316.174ZM448.276 313.674H445.81V311.709H448.276V313.674ZM448.276 311.173H445.81V309.208H448.276V311.173Z"
        fill="#263238" />
    <path
        d="M452.145 325.049H403.573L402.88 329.586C402.497 332.098 404.441 334.361 406.982 334.361H448.596C451.087 334.361 453.017 332.181 452.715 329.708L452.145 325.049Z"
        fill="#263238" stroke="#263238" stroke-miterlimit="10" stroke-linecap="round" stroke-linejoin="round" />
    <path
        d="M410.071 332.033C411.724 332.033 413.064 330.693 413.064 329.04C413.064 327.387 411.724 326.047 410.071 326.047C408.418 326.047 407.078 327.387 407.078 329.04C407.078 330.693 408.418 332.033 410.071 332.033Z"
        fill="white" stroke="#263238" stroke-miterlimit="10" stroke-linecap="round" stroke-linejoin="round" />
    <path
        d="M445.069 332.033C446.722 332.033 448.062 330.693 448.062 329.04C448.062 327.387 446.722 326.047 445.069 326.047C443.416 326.047 442.076 327.387 442.076 329.04C442.076 330.693 443.416 332.033 445.069 332.033Z"
        fill="white" stroke="#263238" stroke-miterlimit="10" stroke-linecap="round" stroke-linejoin="round" />
    <path d="M418.977 329.039H436.604" stroke="white" stroke-miterlimit="10" stroke-linecap="round"
        stroke-linejoin="round" />
    <path
        d="M442.79 310.826L439.724 311.812C438.983 312.05 438.64 312.902 439.009 313.587L439.165 313.877C439.382 314.28 439.803 314.531 440.261 314.531H443.171H446.081C446.539 314.531 446.96 314.28 447.177 313.877L447.333 313.587C447.702 312.902 447.359 312.05 446.618 311.812L443.552 310.826C443.304 310.746 443.038 310.746 442.79 310.826Z"
        fill="white" stroke="#263238" stroke-miterlimit="10" stroke-linecap="round" stroke-linejoin="round" />
    <path
        d="M442.942 311.837L441.095 312.275C440.649 312.381 440.442 312.759 440.665 313.064L440.759 313.193C440.89 313.372 441.143 313.484 441.419 313.484H443.172H444.925C445.201 313.484 445.454 313.372 445.585 313.193L445.679 313.064C445.901 312.759 445.694 312.381 445.248 312.275L443.401 311.837C443.251 311.802 443.091 311.802 442.942 311.837Z"
        fill="#263238" />
    <path d="M464.301 279.664L453.872 290.4L459.393 290.707L451.418 298.376" stroke="#D6EEEB" stroke-miterlimit="10"
        stroke-linecap="round" stroke-linejoin="round" />
    <path d="M483.014 317.088L471.97 315.861L474.731 320.462L462.768 318.622" stroke="#D6EEEB" stroke-miterlimit="10"
        stroke-linecap="round" stroke-linejoin="round" />
    <path d="M479.946 295.922L467.983 301.75L470.437 304.511L460.314 307.885" stroke="#D6EEEB" stroke-miterlimit="10"
        stroke-linecap="round" stroke-linejoin="round" />
    <path d="M387.307 279.664L397.736 290.4L392.215 290.707L400.19 298.376" stroke="#D6EEEB" stroke-miterlimit="10"
        stroke-linecap="round" stroke-linejoin="round" />
    <path d="M368.594 317.088L379.637 315.861L376.876 320.462L388.839 318.622" stroke="#D6EEEB" stroke-miterlimit="10"
        stroke-linecap="round" stroke-linejoin="round" />
    <path d="M371.66 295.922L383.624 301.75L381.17 304.511L391.293 307.885" stroke="#D6EEEB" stroke-miterlimit="10"
        stroke-linecap="round" stroke-linejoin="round" />
    <path d="M462.747 424.613H390.623V430.064H462.747V424.613Z" fill="white" stroke="#263238" stroke-miterlimit="10"
        stroke-linecap="round" stroke-linejoin="round" />
    <path d="M389.365 345.361L385.234 473.175H389.146L399.848 347.038L389.365 345.361Z" fill="white" stroke="#263238"
        stroke-miterlimit="10" stroke-linecap="round" stroke-linejoin="round" />
    <path d="M399.274 353.802L399.848 347.038L389.365 345.361L389.092 353.802H399.274Z" fill="#263238" stroke="#263238"
        stroke-miterlimit="10" stroke-linecap="round" stroke-linejoin="round" />
    <path d="M464.067 345.361L468.198 473.175H464.286L453.584 347.038L464.067 345.361Z" fill="white" stroke="#263238"
        stroke-miterlimit="10" stroke-linecap="round" stroke-linejoin="round" />
    <path d="M464.34 353.802L464.067 345.361L453.584 347.038L454.158 353.802H464.34Z" fill="#263238" stroke="#263238"
        stroke-miterlimit="10" stroke-linecap="round" stroke-linejoin="round" />
    <path d="M435.072 345.656L428.798 473.492L424.893 473.263L421.602 346.716L435.072 345.656Z" fill="white"
        stroke="#263238" stroke-miterlimit="10" stroke-linecap="round" stroke-linejoin="round" />
    <path d="M434.672 353.801L435.072 345.656L421.602 346.716L421.786 353.801H434.672Z" fill="#263238" stroke="#263238"
        stroke-miterlimit="10" stroke-linecap="round" stroke-linejoin="round" />
    <path d="M471.456 338.719H381.477V348.525H471.456V338.719Z" fill="white" stroke="#263238" stroke-miterlimit="10"
        stroke-linecap="round" stroke-linejoin="round" />
</svg>