<svg width="380" height="380" viewBox="0 0 380 380" fill="none" xmlns="http://www.w3.org/2000/svg">
    <path
        d="M380 190C380 294.934 294.934 380 190 380C85.0659 380 0 294.934 0 190C0 85.0659 85.0659 0 190 0C294.934 0 380 85.0659 380 190Z"
        fill="#F7F7F7" />
    <path
        d="M128.927 102.342C94.5668 125.529 65.9753 145.44 65.2229 146.196C64.2197 146.952 66.7277 147.708 70.239 147.708C74.7534 147.708 96.0716 134.854 134.695 108.895L192.129 70.0814L249.563 109.147C293.453 138.887 308.501 147.96 313.266 147.204C319.035 146.448 316.778 144.432 295.71 129.814L271.382 113.431L269.878 79.6587H258.842C248.058 79.6587 247.556 79.9108 247.556 87.2198C247.556 91.2523 246.553 94.7808 245.55 94.7808C244.296 94.7808 235.518 89.4881 225.987 82.6831C216.457 76.1302 204.669 68.3172 199.904 65.2927L191.126 60L128.927 102.342Z"
        fill="#00A28E" />
    <path
        d="M153.756 124.017C148.74 129.057 148.74 141.155 153.756 146.196C159.023 151.741 170.56 151.237 175.576 145.692C184.856 135.358 178.335 119.984 164.792 119.984C160.779 119.984 155.763 121.748 153.756 124.017Z"
        fill="#00A28E" />
    <path
        d="M223.73 127.545C219.968 127.545 217.711 126.537 218.714 125.025C219.467 123.513 221.724 122.505 223.73 122.505C225.737 122.505 227.994 123.513 228.746 125.025C229.749 126.537 227.492 127.545 223.73 127.545Z"
        fill="#00A28E" />
    <path
        d="M214.199 137.123C205.672 146.448 211.44 160.31 223.73 160.31C236.27 160.31 242.038 145.188 233.009 136.871C226.99 131.326 219.215 131.578 214.199 137.123Z"
        fill="#00A28E" />
    <path
        d="M122.156 188.286C121.905 179.716 128.927 163.838 136.201 156.277C144.979 146.7 147.737 145.944 152.252 151.488C156.516 156.529 172.065 156.277 177.834 150.984C183.351 145.944 185.609 148.212 189.872 162.83C194.387 178.708 192.631 196.603 183.602 227.099C181.596 233.904 179.339 242.725 178.586 246.506C177.583 251.546 175.577 253.563 172.065 253.563C167.551 253.563 167.049 252.05 167.551 239.701C167.802 232.14 167.3 225.083 166.548 224.075C162.535 220.294 159.274 228.611 160.027 240.709C160.779 251.546 160.278 253.563 156.766 253.563C152.503 253.563 151.499 251.294 148.49 235.92C147.487 231.132 145.48 225.839 144.226 224.075C142.972 222.562 140.715 210.969 138.959 198.367L136.201 175.684L129.178 183.749C125.416 188.286 122.406 190.302 122.156 188.286Z"
        fill="#00A28E" />
    <path
        d="M203.415 165.602C197.145 177.952 199.904 211.221 208.933 235.92L216.206 254.823L218.714 241.465C219.968 234.156 222.476 228.107 223.73 228.107C225.235 228.107 227.492 234.156 228.746 241.465L231.254 254.823L238.527 235.164C242.54 224.327 246.302 207.944 247.054 198.871L248.308 182.237L262.855 199.375L261.099 190.554C258.842 178.96 254.579 170.391 246.553 163.082C240.534 157.285 239.781 157.285 235.518 161.066C229.749 166.359 217.961 166.611 212.193 161.318C208.18 157.537 207.428 158.041 203.415 165.602Z"
        fill="#00A28E" />
    <path
        d="M122.469 315.553C124.156 316.404 125.36 316.83 126.083 316.83C126.806 316.83 127.379 316.603 127.8 316.149C128.222 315.695 128.433 314.844 128.433 313.596C128.433 313.142 128.342 312.376 128.162 311.298C128.041 310.164 127.921 308.887 127.8 307.469C127.68 306.051 127.619 304.661 127.619 303.299V296.236C127.68 293.626 127.74 290.96 127.8 288.236C127.921 285.513 128.011 282.847 128.071 280.237C128.132 277.627 128.162 275.216 128.162 273.004C128.222 270.791 128.252 268.976 128.252 267.557C128.312 265.969 128.764 264.834 129.607 264.153C130.511 263.473 132.017 262.934 134.125 262.536C135.872 262.196 136.746 261.6 136.746 260.749C136.746 260.409 136.505 260.154 136.023 259.983C135.601 259.756 135.029 259.643 134.306 259.643C132.68 259.643 131.354 259.671 130.33 259.728C129.366 259.785 128.463 259.842 127.619 259.898H122.108C121.385 259.842 120.602 259.813 119.758 259.813H116.776C116.234 259.813 115.632 259.898 114.969 260.069C114.367 260.239 114.065 260.522 114.065 260.92C114.065 261.43 114.367 261.827 114.969 262.111C115.632 262.338 116.324 262.536 117.047 262.707C118.794 263.047 120.24 263.643 121.385 264.494C122.589 265.288 123.222 266.394 123.282 267.813C123.342 270.536 123.373 273.372 123.373 276.323C123.433 279.273 123.433 282.166 123.373 285.003V298.278C123.312 299.243 123.041 299.725 122.559 299.725C122.318 299.725 122.017 299.555 121.656 299.214C121.355 298.874 121.083 298.59 120.842 298.363C119.879 297.342 118.644 296.037 117.138 294.449C115.692 292.803 114.065 291.016 112.258 289.087C110.451 287.102 108.554 285.031 106.566 282.875C104.638 280.719 102.68 278.563 100.692 276.408C98.7645 274.252 96.8971 272.209 95.0899 270.28C93.3429 268.295 91.7164 266.508 90.2104 264.919C88.7044 263.274 87.4695 261.912 86.5057 260.834C86.2647 260.494 85.9936 260.239 85.6924 260.069C85.4515 259.842 85.0599 259.728 84.5178 259.728C82.8913 259.728 81.3552 259.7 79.9094 259.643C78.5239 259.586 77.1685 259.558 75.8432 259.558L72.0481 259.388C70.783 259.331 69.518 259.303 68.253 259.303C67.7108 259.303 67.1988 259.388 66.7168 259.558C66.2349 259.728 65.994 260.069 65.994 260.579C65.994 261.09 66.3253 261.515 66.9879 261.856C67.6506 262.196 68.1927 262.423 68.6144 262.536C71.024 263.331 73.0119 264.38 74.5782 265.685C76.2046 266.99 77.0179 269.117 77.0179 272.068C77.0179 276.72 76.8974 281.23 76.6564 285.598C76.4757 289.967 76.2649 293.91 76.0239 297.427C75.783 300.888 75.542 303.696 75.301 305.852C75.1203 307.554 74.6384 309.029 73.8553 310.277C73.1324 311.469 71.9878 312.291 70.4216 312.745C69.6385 312.972 69.006 313.227 68.524 313.511C68.1024 313.738 67.8915 314.078 67.8915 314.532C67.8915 314.873 68.1325 315.128 68.6144 315.298C69.0963 315.525 69.6385 315.638 70.2409 315.638C70.9638 315.638 71.7168 315.582 72.4999 315.468C73.283 315.411 74.1565 315.355 75.1203 315.298C76.1444 315.241 77.289 315.213 78.554 315.213C79.7588 315.213 80.7528 315.241 81.5359 315.298C82.319 315.355 83.1925 315.411 84.1563 315.468C85.1202 315.525 86.4153 315.553 88.0418 315.553C88.6442 315.553 89.1864 315.468 89.6683 315.298C90.1502 315.128 90.3912 314.844 90.3912 314.447C90.3912 313.993 90.1201 313.653 89.5779 313.426C89.096 313.142 88.4936 312.944 87.7707 312.83C85.4214 312.32 83.7045 311.497 82.6202 310.362C81.5359 309.228 80.9937 307.781 80.9937 306.022V295.81C80.9937 292.123 80.9636 288.492 80.9034 284.918V275.642C80.9034 275.301 80.9636 274.933 81.0841 274.535C81.2046 274.138 81.3853 273.94 81.6262 273.94C81.807 273.94 82.0178 274.053 82.2588 274.28C82.56 274.45 82.831 274.677 83.072 274.961C84.0961 276.096 85.3611 277.457 86.8671 279.046C88.3731 280.577 90.0297 282.279 91.8369 284.152C93.6441 286.024 95.4814 287.981 97.3489 290.023L103.132 296.151C105.06 298.193 106.897 300.15 108.644 302.023C110.451 303.895 112.078 305.625 113.523 307.214C115.029 308.745 116.294 310.05 117.318 311.128C119.065 313.227 120.782 314.702 122.469 315.553Z"
        fill="#00A28E" />
    <path fill-rule="evenodd" clip-rule="evenodd"
        d="M138.912 316.489C137.466 316.489 136.08 316.121 134.755 315.383C133.49 314.646 132.466 313.681 131.683 312.49C130.9 311.298 130.508 310.079 130.508 308.83C130.508 306.902 131.111 305.341 132.315 304.15C133.52 302.902 135.327 301.796 137.737 300.831L146.14 297.427C147.345 296.973 148.068 296.548 148.309 296.151C148.61 295.754 148.761 295.016 148.761 293.938L148.942 288.917C149.002 287.329 148.64 286.052 147.857 285.088C147.134 284.123 146.02 283.641 144.514 283.641C143.731 283.641 142.918 283.783 142.074 284.067C141.231 284.35 140.568 284.719 140.086 285.173C139.845 285.4 139.665 285.712 139.544 286.109C139.484 286.449 139.454 286.79 139.454 287.13V288.236C139.514 288.634 139.544 289.002 139.544 289.343C139.544 289.683 139.092 290.109 138.189 290.619C137.285 291.13 136.261 291.584 135.117 291.981C133.972 292.378 133.008 292.577 132.225 292.577C131.803 292.577 131.472 292.435 131.231 292.151C130.99 291.867 130.87 291.527 130.87 291.13C130.87 290.222 131.171 289.314 131.773 288.407C132.436 287.442 133.46 286.421 134.845 285.343C136.351 284.152 138.008 283.102 139.815 282.194C141.622 281.23 143.369 280.464 145.056 279.897C146.803 279.329 148.309 279.046 149.574 279.046C152.466 279.046 154.785 279.953 156.532 281.769C158.279 283.528 159.122 285.854 159.062 288.747L158.61 306.958C158.55 308.206 158.791 309.256 159.333 310.107C159.935 310.958 160.658 311.383 161.502 311.383C162.767 311.383 163.791 311.043 164.574 310.362C164.815 310.135 165.026 310.022 165.206 310.022C165.274 310.022 165.338 310.027 165.399 310.039C165.018 308.811 164.827 307.416 164.827 305.852V286.194C164.827 285.74 164.616 285.4 164.195 285.173C163.833 284.946 163.08 284.804 161.936 284.747H160.942C160.58 284.747 160.279 284.492 160.038 283.981C159.797 283.414 159.677 282.875 159.677 282.365C159.677 282.251 159.707 282.109 159.767 281.939C159.888 281.712 160.038 281.57 160.219 281.514C161.604 280.946 163.02 280.18 164.466 279.216C165.912 278.195 167.267 277.174 168.532 276.152C169.797 275.074 170.851 274.167 171.695 273.429C172.116 273.145 172.448 272.89 172.689 272.663C172.99 272.436 173.321 272.323 173.683 272.323C174.165 272.323 174.526 272.436 174.767 272.663C175.068 272.833 175.158 273.202 175.038 273.77L174.496 278.45C174.436 279.131 174.586 279.585 174.948 279.812C175.369 280.039 175.942 280.152 176.664 280.152H187.327C187.504 280.152 187.682 280.344 187.859 280.727C188.449 280.656 189.009 280.578 189.538 280.492C191.285 280.152 193.152 279.755 195.14 279.301C195.381 279.188 195.622 279.102 195.863 279.046C196.104 278.989 196.345 278.961 196.586 278.961C197.369 278.961 197.731 279.358 197.67 280.152C197.49 281.457 197.339 282.563 197.219 283.471C197.098 284.322 197.038 285.4 197.038 286.705V303.129C197.038 304.49 197.309 305.71 197.851 306.788C198.393 307.866 199.146 308.717 200.11 309.341C201.074 309.965 202.128 310.306 203.273 310.362C204.417 310.362 205.471 310.249 206.435 310.022C207.459 309.795 208.453 309.284 209.417 308.49C209.899 308.15 210.441 307.526 211.044 306.618C211.646 305.653 211.947 304.405 211.947 302.874V288.577C211.947 287.499 211.676 286.648 211.134 286.024C210.652 285.343 209.989 284.832 209.146 284.492C208.363 284.152 207.55 283.981 206.706 283.981C206.044 283.925 205.532 283.783 205.17 283.556C204.809 283.329 204.628 282.875 204.628 282.194C204.628 281.627 204.839 281.23 205.261 281.003C205.682 280.776 206.164 280.663 206.706 280.663C209.357 280.492 211.495 280.351 213.122 280.237C214.748 280.124 216.104 279.982 217.188 279.812C218.333 279.641 219.447 279.414 220.531 279.131C220.712 279.074 220.893 279.046 221.074 279.046C221.315 278.989 221.495 278.961 221.616 278.961C222.459 278.961 222.881 279.273 222.881 279.897C222.881 280.067 222.851 280.265 222.79 280.492C222.79 280.663 222.73 280.861 222.61 281.088C222.549 281.258 222.459 281.74 222.339 282.535C222.278 283.329 222.188 284.152 222.068 285.003C222.007 285.854 221.977 286.506 221.977 286.96V306.703C221.977 308.065 222.128 309.001 222.429 309.511C222.79 310.022 223.182 310.277 223.604 310.277H225.14C225.863 310.22 226.375 310.192 226.676 310.192C227.063 310.192 227.391 310.265 227.662 310.411C227.726 310.16 227.757 309.888 227.757 309.596V290.449C227.757 289.144 227.547 288.066 227.125 287.215C226.763 286.308 225.95 285.712 224.685 285.428C224.444 285.315 224.203 285.173 223.962 285.003C223.721 284.776 223.601 284.464 223.601 284.067C223.601 283.329 223.932 282.875 224.595 282.705C226.402 282.251 228.36 281.655 230.468 280.918C232.577 280.124 234.354 279.358 235.799 278.62C236.101 278.45 236.432 278.28 236.793 278.11C237.155 277.939 237.426 277.854 237.607 277.854C238.089 277.854 238.329 278.138 238.329 278.705C238.329 278.932 238.299 279.443 238.239 280.237C238.239 281.031 238.209 281.911 238.149 282.875C238.149 283.783 238.119 284.606 238.058 285.343C238.058 285.683 238.149 285.854 238.329 285.854C239.293 284.662 240.378 283.556 241.582 282.535C242.787 281.514 244.052 280.663 245.378 279.982C246.763 279.301 248.149 278.961 249.534 278.961C251.281 278.961 252.576 279.301 253.42 279.982C254.323 280.663 254.775 281.514 254.775 282.535C254.775 283.184 254.614 283.871 254.292 284.595C255.526 283.708 256.852 282.907 258.272 282.194C260.079 281.23 261.826 280.464 263.512 279.897C265.259 279.329 266.765 279.046 268.03 279.046C270.922 279.046 273.241 279.953 274.988 281.769C276.735 283.528 277.578 285.854 277.518 288.747L277.066 306.958C277.006 308.206 277.247 309.256 277.789 310.107C278.392 310.958 279.115 311.383 279.958 311.383C281.223 311.383 282.247 311.043 283.03 310.362C283.271 310.135 283.482 310.022 283.663 310.022C283.964 310.022 284.205 310.135 284.386 310.362C284.627 310.532 284.747 310.759 284.747 311.043C284.747 311.667 284.265 312.433 283.301 313.341C282.217 314.362 281.042 315.128 279.777 315.638C278.572 316.206 277.368 316.489 276.163 316.489C272.97 316.489 270.38 314.929 268.392 311.809H268.121C266.133 313.454 264.296 314.646 262.609 315.383C260.982 316.121 259.235 316.489 257.368 316.489C255.922 316.489 254.537 316.121 253.211 315.383C251.946 314.646 250.922 313.681 250.139 312.49C249.356 311.298 248.964 310.079 248.964 308.83C248.964 306.902 249.567 305.341 250.772 304.15C251.976 302.902 253.784 301.796 256.193 300.831L264.597 297.427C265.802 296.973 266.524 296.548 266.765 296.151C267.067 295.754 267.217 295.016 267.217 293.938L267.398 288.917C267.458 287.329 267.097 286.052 266.314 285.088C265.591 284.123 264.476 283.641 262.97 283.641C262.187 283.641 261.374 283.783 260.531 284.067C259.687 284.35 259.025 284.719 258.543 285.173C258.302 285.4 258.121 285.712 258 286.109C257.94 286.449 257.91 286.79 257.91 287.13V288.236C257.97 288.634 258 289.002 258 289.343C258 289.683 257.549 290.109 256.645 290.619C255.741 291.13 254.717 291.584 253.573 291.981C252.428 292.378 251.464 292.577 250.681 292.577C250.26 292.577 249.928 292.435 249.687 292.151C249.446 291.867 249.326 291.527 249.326 291.13C249.326 290.222 249.627 289.314 250.23 288.407L250.232 288.403L250.178 288.405L250.13 288.406L250.076 288.407C249.594 288.407 249.082 288.322 248.54 288.151C247.998 287.924 247.456 287.669 246.914 287.385C246.372 287.158 245.799 286.932 245.197 286.705C244.655 286.478 244.143 286.364 243.661 286.364C242.155 286.364 240.799 286.903 239.595 287.981C238.39 289.002 237.787 291.045 237.787 294.108V309.086C237.787 310.107 238.179 310.901 238.962 311.469C239.745 311.979 240.95 312.461 242.576 312.915C243.239 313.085 243.721 313.284 244.022 313.511C244.384 313.681 244.564 313.993 244.564 314.447C244.564 315.185 244.022 315.553 242.938 315.553C241.131 315.553 239.414 315.468 237.787 315.298C236.221 315.185 234.655 315.128 233.089 315.128C232.065 315.128 231.071 315.156 230.107 315.213C229.203 315.27 228.269 315.326 227.306 315.383C226.342 315.497 225.257 315.553 224.053 315.553C223.571 315.553 223.149 315.468 222.788 315.298C222.426 315.071 222.245 314.787 222.245 314.447C222.245 314.24 222.283 314.057 222.358 313.897C221.398 314.1 220.488 314.34 219.628 314.617C217.519 315.241 215.682 315.865 214.116 316.489C213.754 316.603 213.363 316.716 212.941 316.83C212.58 316.943 212.248 317 211.947 317C211.465 317 211.224 316.745 211.224 316.234C211.224 315.61 211.285 314.731 211.405 313.596C211.586 312.461 211.676 311.554 211.676 310.873C211.676 310.703 211.646 310.561 211.586 310.447V310.107C209.718 312.036 207.52 313.596 204.99 314.787C202.52 315.979 199.899 316.574 197.128 316.574C195.201 316.574 193.454 316.092 191.887 315.128C190.392 314.17 189.194 312.849 188.292 311.165C188.16 311.481 187.567 312.036 186.514 312.83C185.369 313.738 183.833 314.561 181.905 315.298C180.038 316.092 178.02 316.489 175.851 316.489C172.237 316.489 169.496 315.582 167.628 313.766C167.026 313.181 166.521 312.509 166.113 311.752C165.893 312.222 165.471 312.752 164.845 313.341C163.761 314.362 162.586 315.128 161.321 315.638C160.116 316.206 158.911 316.489 157.707 316.489C154.514 316.489 151.923 314.929 149.936 311.809H149.664C147.677 313.454 145.839 314.646 144.153 315.383C142.526 316.121 140.779 316.489 138.912 316.489ZM178.472 284.918H185.351C185.699 285.17 185.98 285.454 186.195 285.769C186.737 286.506 187.008 287.527 187.008 288.832V305.171C187.008 306.732 187.207 308.159 187.607 309.452C187.548 309.435 187.485 309.426 187.417 309.426C187.297 309.426 187.146 309.483 186.966 309.596C186.243 309.994 185.429 310.334 184.526 310.618C183.682 310.901 182.417 311.043 180.731 311.043C178.863 311.043 177.417 310.419 176.393 309.171C175.369 307.866 174.857 305.965 174.857 303.469V287.13C174.857 286.222 175.098 285.627 175.58 285.343C176.122 285.059 177.086 284.918 178.472 284.918ZM146.05 311.043C146.652 310.759 147.165 310.391 147.586 309.937C147.827 309.653 148.008 309.313 148.128 308.916C148.309 308.518 148.43 307.951 148.49 307.214L148.671 301.767C148.731 301.2 148.671 300.831 148.49 300.661C148.309 300.434 148.098 300.321 147.857 300.321C147.737 300.321 147.556 300.349 147.315 300.406C147.074 300.406 146.803 300.491 146.502 300.661C144.273 301.512 142.677 302.42 141.713 303.384C140.749 304.349 140.267 305.597 140.267 307.128C140.267 308.66 140.659 309.767 141.442 310.447C142.225 311.071 143.038 311.383 143.881 311.383C144.725 311.383 145.448 311.27 146.05 311.043ZM264.506 311.043C265.109 310.759 265.621 310.391 266.042 309.937C266.283 309.653 266.464 309.313 266.585 308.916C266.765 308.518 266.886 307.951 266.946 307.214L267.127 301.767C267.187 301.2 267.127 300.831 266.946 300.661C266.765 300.434 266.555 300.321 266.314 300.321C266.193 300.321 266.012 300.349 265.771 300.406C265.53 300.406 265.259 300.491 264.958 300.661C262.729 301.512 261.133 302.42 260.169 303.384C259.205 304.349 258.723 305.597 258.723 307.128C258.723 308.66 259.115 309.767 259.898 310.447C260.681 311.071 261.494 311.383 262.338 311.383C263.181 311.383 263.904 311.27 264.506 311.043Z"
        fill="#00A28E" />
    <path d="M306.541 144.785H305.969C306.163 144.881 306.354 144.974 306.541 145.063V144.785Z" fill="black" />
    <path
        d="M122.737 188.286C122.486 179.716 129.508 163.838 136.781 156.277C145.56 146.7 148.318 145.944 152.833 151.488C157.096 156.529 172.646 156.277 178.415 150.984C183.932 145.944 186.19 148.212 190.453 162.83C194.968 178.708 193.212 196.603 184.183 227.099C182.177 233.904 179.919 242.725 179.167 246.506C178.164 251.546 176.157 253.563 172.646 253.563C168.132 253.563 167.63 252.05 168.132 239.701C168.383 232.14 167.881 225.083 167.129 224.075C163.116 220.294 159.855 228.611 160.608 240.709C161.36 251.546 160.858 253.563 157.347 253.563C153.084 253.563 152.08 251.294 149.071 235.92C148.068 231.132 146.061 225.839 144.807 224.075C143.553 222.562 141.296 210.969 139.54 198.367L136.781 175.684L129.759 183.749C125.997 188.286 122.987 190.302 122.737 188.286Z"
        fill="black" />
    <path
        d="M209.513 235.92C200.485 211.221 197.726 177.952 203.996 165.602C208.009 158.041 208.761 157.537 212.774 161.318C218.542 166.611 230.33 166.359 236.098 161.066C240.362 157.285 241.115 157.285 247.134 163.082C255.159 170.391 259.423 178.96 261.68 190.554L263.436 199.375L248.889 182.237L247.635 198.871C246.883 207.944 243.121 224.327 239.108 235.164L231.835 254.823L229.327 241.465C228.073 234.156 225.816 228.107 224.311 228.107C223.057 228.107 220.549 234.156 219.295 241.465L216.787 254.823L209.513 235.92Z"
        fill="black" />
    <path
        d="M126.172 316.779C126.355 316.813 126.519 316.83 126.664 316.83C126.863 316.83 127.05 316.813 127.225 316.779H126.172Z"
        fill="black" />
    <path fill-rule="evenodd" clip-rule="evenodd"
        d="M135.336 315.383C136.661 316.121 138.047 316.489 139.493 316.489C141.36 316.489 143.107 316.121 144.733 315.383C146.42 314.646 148.258 313.454 150.245 311.809H150.517C152.504 314.929 155.095 316.489 158.287 316.489C159.492 316.489 160.697 316.206 161.902 315.638C163.167 315.128 164.342 314.362 165.426 313.341C166.052 312.752 166.474 312.222 166.694 311.752C167.102 312.509 167.607 313.181 168.209 313.766C170.077 315.582 172.818 316.489 176.432 316.489C178.601 316.489 180.619 316.092 182.486 315.298C184.414 314.561 185.95 313.738 187.095 312.83C188.148 312.036 188.741 311.481 188.873 311.165C189.775 312.849 190.973 314.17 192.468 315.128C194.034 316.092 195.781 316.574 197.709 316.574C200.48 316.574 203.101 315.979 205.57 314.787C208.101 313.596 210.299 312.036 212.167 310.107V310.447C212.227 310.561 212.257 310.703 212.257 310.873C212.257 311.554 212.167 312.461 211.986 313.596C211.866 314.731 211.805 315.61 211.805 316.234C211.805 316.745 212.046 317 212.528 317C212.829 317 213.161 316.943 213.522 316.83C213.944 316.716 214.335 316.603 214.697 316.489C216.263 315.865 218.1 315.241 220.209 314.617C221.069 314.34 221.979 314.1 222.939 313.897C222.864 314.057 222.826 314.24 222.826 314.447C222.826 314.787 223.007 315.071 223.369 315.298C223.73 315.468 224.152 315.553 224.634 315.553C225.838 315.553 226.923 315.497 227.887 315.383C228.85 315.326 229.784 315.27 230.688 315.213C231.652 315.156 232.645 315.128 233.67 315.128C235.236 315.128 236.802 315.185 238.368 315.298C239.995 315.468 241.712 315.553 243.519 315.553C244.603 315.553 245.145 315.185 245.145 314.447C245.145 313.993 244.965 313.681 244.603 313.511C244.302 313.284 243.82 313.085 243.157 312.915C241.531 312.461 240.326 311.979 239.543 311.469C238.76 310.901 238.368 310.107 238.368 309.086V294.108C238.368 291.045 238.971 289.002 240.175 287.981C241.38 286.903 242.736 286.364 244.242 286.364C244.724 286.364 245.236 286.478 245.778 286.705C246.38 286.932 246.952 287.158 247.495 287.385C248.037 287.669 248.579 287.924 249.121 288.151C249.663 288.322 250.175 288.407 250.657 288.407L250.711 288.406L250.759 288.405L250.813 288.403L250.81 288.407C250.208 289.314 249.907 290.222 249.907 291.13C249.907 291.527 250.027 291.867 250.268 292.151C250.509 292.435 250.841 292.577 251.262 292.577C252.045 292.577 253.009 292.378 254.154 291.981C255.298 291.584 256.322 291.13 257.226 290.619C258.13 290.109 258.581 289.683 258.581 289.343C258.581 289.002 258.551 288.634 258.491 288.236V287.13C258.491 286.79 258.521 286.449 258.581 286.109C258.702 285.712 258.883 285.4 259.124 285.173C259.605 284.719 260.268 284.35 261.111 284.067C261.955 283.783 262.768 283.641 263.551 283.641C265.057 283.641 266.172 284.123 266.895 285.088C267.678 286.052 268.039 287.329 267.979 288.917L267.798 293.938C267.798 295.016 267.648 295.754 267.346 296.151C267.105 296.548 266.382 296.973 265.178 297.427L256.774 300.831C254.365 301.796 252.557 302.902 251.353 304.15C250.148 305.341 249.545 306.902 249.545 308.83C249.545 310.079 249.937 311.298 250.72 312.49C251.503 313.681 252.527 314.646 253.792 315.383C255.118 316.121 256.503 316.489 257.949 316.489C259.816 316.489 261.563 316.121 263.19 315.383C264.876 314.646 266.714 313.454 268.702 311.809H268.973C270.961 314.929 273.551 316.489 276.744 316.489C277.949 316.489 279.153 316.206 280.358 315.638C281.623 315.128 282.798 314.362 283.882 313.341C284.846 312.433 285.328 311.667 285.328 311.043C285.328 310.759 285.207 310.532 284.966 310.362C284.786 310.135 284.545 310.022 284.244 310.022C284.063 310.022 283.852 310.135 283.611 310.362C282.828 311.043 281.804 311.383 280.539 311.383C279.695 311.383 278.973 310.958 278.37 310.107C277.828 309.256 277.587 308.206 277.647 306.958L278.099 288.747C278.159 285.854 277.316 283.528 275.569 281.769C273.822 279.953 271.503 279.046 268.611 279.046C267.346 279.046 265.84 279.329 264.093 279.897C262.407 280.464 260.66 281.23 258.852 282.194C257.433 282.907 256.107 283.708 254.873 284.595C255.195 283.871 255.356 283.184 255.356 282.535C255.356 281.514 254.904 280.663 254.001 279.982C253.157 279.301 251.862 278.961 250.115 278.961C248.73 278.961 247.344 279.301 245.959 279.982C244.633 280.663 243.368 281.514 242.163 282.535C240.959 283.556 239.874 284.662 238.91 285.854C238.73 285.854 238.639 285.683 238.639 285.343C238.7 284.606 238.73 283.783 238.73 282.875C238.79 281.911 238.82 281.031 238.82 280.237C238.88 279.443 238.91 278.932 238.91 278.705C238.91 278.138 238.669 277.854 238.188 277.854C238.007 277.854 237.736 277.939 237.374 278.11C237.013 278.28 236.682 278.45 236.38 278.62C234.935 279.358 233.158 280.124 231.049 280.918C228.941 281.655 226.983 282.251 225.176 282.705C224.513 282.875 224.182 283.329 224.182 284.067C224.182 284.464 224.302 284.776 224.543 285.003C224.784 285.173 225.025 285.315 225.266 285.428C226.531 285.712 227.344 286.308 227.706 287.215C228.127 288.066 228.338 289.144 228.338 290.449V309.596C228.338 309.888 228.306 310.16 228.243 310.411C227.972 310.265 227.644 310.192 227.257 310.192C226.956 310.192 226.444 310.22 225.721 310.277H224.185C223.763 310.277 223.371 310.022 223.01 309.511C222.709 309.001 222.558 308.065 222.558 306.703V286.96C222.558 286.506 222.588 285.854 222.648 285.003C222.769 284.152 222.859 283.329 222.92 282.535C223.04 281.74 223.13 281.258 223.191 281.088C223.311 280.861 223.371 280.663 223.371 280.492C223.432 280.265 223.462 280.067 223.462 279.897C223.462 279.273 223.04 278.961 222.197 278.961C222.076 278.961 221.895 278.989 221.655 279.046C221.474 279.046 221.293 279.074 221.112 279.131C220.028 279.414 218.914 279.641 217.769 279.812C216.685 279.982 215.329 280.124 213.703 280.237C212.076 280.351 209.938 280.492 207.287 280.663C206.745 280.663 206.263 280.776 205.842 281.003C205.42 281.23 205.209 281.627 205.209 282.194C205.209 282.875 205.39 283.329 205.751 283.556C206.113 283.783 206.625 283.925 207.287 283.981C208.131 283.981 208.944 284.152 209.727 284.492C210.57 284.832 211.233 285.343 211.715 286.024C212.257 286.648 212.528 287.499 212.528 288.577V302.874C212.528 304.405 212.227 305.653 211.625 306.618C211.022 307.526 210.48 308.15 209.998 308.49C209.034 309.284 208.04 309.795 207.016 310.022C206.052 310.249 204.998 310.362 203.854 310.362C202.709 310.306 201.655 309.965 200.691 309.341C199.727 308.717 198.974 307.866 198.432 306.788C197.89 305.71 197.619 304.49 197.619 303.129V286.705C197.619 285.4 197.679 284.322 197.799 283.471C197.92 282.563 198.071 281.457 198.251 280.152C198.312 279.358 197.95 278.961 197.167 278.961C196.926 278.961 196.685 278.989 196.444 279.046C196.203 279.102 195.962 279.188 195.721 279.301C193.733 279.755 191.866 280.152 190.119 280.492C189.59 280.578 189.03 280.656 188.44 280.727C188.263 280.344 188.085 280.152 187.908 280.152H177.245C176.523 280.152 175.95 280.039 175.529 279.812C175.167 279.585 175.017 279.131 175.077 278.45L175.619 273.77C175.739 273.202 175.649 272.833 175.348 272.663C175.107 272.436 174.745 272.323 174.264 272.323C173.902 272.323 173.571 272.436 173.27 272.663C173.029 272.89 172.697 273.145 172.276 273.429C171.432 274.167 170.378 275.074 169.113 276.152C167.848 277.174 166.493 278.195 165.047 279.216C163.601 280.18 162.185 280.946 160.8 281.514C160.619 281.57 160.469 281.712 160.348 281.939C160.288 282.109 160.258 282.251 160.258 282.365C160.258 282.875 160.378 283.414 160.619 283.981C160.86 284.492 161.161 284.747 161.523 284.747H162.517C163.661 284.804 164.414 284.946 164.776 285.173C165.197 285.4 165.408 285.74 165.408 286.194V305.852C165.408 307.416 165.599 308.811 165.98 310.039C165.919 310.027 165.855 310.022 165.787 310.022C165.607 310.022 165.396 310.135 165.155 310.362C164.372 311.043 163.348 311.383 162.083 311.383C161.239 311.383 160.516 310.958 159.914 310.107C159.372 309.256 159.131 308.206 159.191 306.958L159.643 288.747C159.703 285.854 158.86 283.528 157.113 281.769C155.366 279.953 153.047 279.046 150.155 279.046C148.89 279.046 147.384 279.329 145.637 279.897C143.95 280.464 142.203 281.23 140.396 282.194C138.589 283.102 136.932 284.152 135.426 285.343C134.041 286.421 133.017 287.442 132.354 288.407C131.752 289.314 131.451 290.222 131.451 291.13C131.451 291.527 131.571 291.867 131.812 292.151C132.053 292.435 132.384 292.577 132.806 292.577C133.589 292.577 134.553 292.378 135.697 291.981C136.842 291.584 137.866 291.13 138.77 290.619C139.673 290.109 140.125 289.683 140.125 289.343C140.125 289.002 140.095 288.634 140.035 288.236V287.13C140.035 286.79 140.065 286.449 140.125 286.109C140.246 285.712 140.426 285.4 140.667 285.173C141.149 284.719 141.812 284.35 142.655 284.067C143.499 283.783 144.312 283.641 145.095 283.641C146.601 283.641 147.715 284.123 148.438 285.088C149.221 286.052 149.583 287.329 149.523 288.917L149.342 293.938C149.342 295.016 149.191 295.754 148.89 296.151C148.649 296.548 147.926 296.973 146.721 297.427L138.318 300.831C135.908 301.796 134.101 302.902 132.896 304.15C131.692 305.341 131.089 306.902 131.089 308.83C131.089 310.079 131.481 311.298 132.264 312.49C133.047 313.681 134.071 314.646 135.336 315.383ZM185.932 284.918H179.053C177.667 284.918 176.703 285.059 176.161 285.343C175.679 285.627 175.438 286.222 175.438 287.13V303.469C175.438 305.965 175.95 307.866 176.974 309.171C177.998 310.419 179.444 311.043 181.312 311.043C182.998 311.043 184.263 310.901 185.107 310.618C186.01 310.334 186.824 309.994 187.546 309.596C187.727 309.483 187.878 309.426 187.998 309.426C188.066 309.426 188.129 309.435 188.188 309.452C187.788 308.159 187.589 306.732 187.589 305.171V288.832C187.589 287.527 187.318 286.506 186.776 285.769C186.561 285.454 186.279 285.17 185.932 284.918ZM148.167 309.937C147.745 310.391 147.233 310.759 146.631 311.043C146.029 311.27 145.306 311.383 144.462 311.383C143.619 311.383 142.806 311.071 142.023 310.447C141.24 309.767 140.848 308.66 140.848 307.128C140.848 305.597 141.33 304.349 142.294 303.384C143.258 302.42 144.854 301.512 147.083 300.661C147.384 300.491 147.655 300.406 147.896 300.406C148.137 300.349 148.318 300.321 148.438 300.321C148.679 300.321 148.89 300.434 149.071 300.661C149.251 300.831 149.312 301.2 149.251 301.767L149.071 307.214C149.011 307.951 148.89 308.518 148.709 308.916C148.589 309.313 148.408 309.653 148.167 309.937ZM266.623 309.937C266.202 310.391 265.69 310.759 265.087 311.043C264.485 311.27 263.762 311.383 262.919 311.383C262.075 311.383 261.262 311.071 260.479 310.447C259.696 309.767 259.304 308.66 259.304 307.128C259.304 305.597 259.786 304.349 260.75 303.384C261.714 302.42 263.31 301.512 265.539 300.661C265.84 300.491 266.111 300.406 266.352 300.406C266.593 300.349 266.774 300.321 266.895 300.321C267.135 300.321 267.346 300.434 267.527 300.661C267.708 300.831 267.768 301.2 267.708 301.767L267.527 307.214C267.467 307.951 267.346 308.518 267.166 308.916C267.045 309.313 266.864 309.653 266.623 309.937Z"
        fill="black" />
</svg>