<svg width="79" height="24" viewBox="0 0 79 24" fill="none" xmlns="http://www.w3.org/2000/svg">
    <path fill-rule="evenodd" clip-rule="evenodd"
        d="M0.0701589 20.3519C0.306972 20.1734 9.30588 15.4722 20.1204 9.99745L39.6969 0L42.4598 1.24968C43.9596 1.96378 47.6697 3.80855 50.6693 5.35578C53.6689 6.96251 56.4317 8.21219 56.8264 8.21219C57.1422 8.21219 57.4579 7.37907 57.4579 6.42693C57.4579 4.70118 57.6158 4.64167 61.0101 4.64167H64.4834L64.957 12.6158L72.614 16.4839C79.2448 19.9354 79.9552 20.4115 78.1397 20.59C76.6398 20.7685 71.9036 18.6262 58.0894 11.6042L40.0127 2.38034L21.9359 11.5447C9.77951 17.6741 3.0698 20.709 1.64892 20.709C0.543786 20.709 -0.245592 20.5305 0.0701589 20.3519ZM21.3304 24V23.7203C21.2435 23.8115 21.1573 23.9048 21.0719 24H21.3304Z"
        fill="#00A28E" />
</svg>