<svg width="352" height="272" viewBox="0 0 352 272" fill="none" xmlns="http://www.w3.org/2000/svg">
    <path d="M352 208.024H0V208.16H352V208.024Z" fill="#EBEBEB" />
    <path d="M316.73 216.78H293.412V216.916H316.73V216.78Z" fill="#EBEBEB" />
    <path d="M233.178 218.257H227.059V218.393H233.178V218.257Z" fill="#EBEBEB" />
    <path d="M292.707 211.729H279.196V211.865H292.707V211.729Z" fill="#EBEBEB" />
    <path d="M67.3385 212.643H36.9307V212.779H67.3385V212.643Z" fill="#EBEBEB" />
    <path d="M78.0659 212.643H73.6074V212.779H78.0659V212.643Z" fill="#EBEBEB" />
    <path d="M158.504 214.94H92.5557V215.076H158.504V214.94Z" fill="#EBEBEB" />
    <path
        d="M166.858 183.763H30.9159C28.7004 183.763 26.8975 182.37 26.8975 180.658V32.9987C26.8975 31.2867 28.7004 29.8936 30.9159 29.8936H166.858C169.072 29.8936 170.875 31.2867 170.875 32.9987V180.658C170.875 182.37 169.072 183.763 166.858 183.763ZM30.9159 30.0301C28.7969 30.0301 27.0735 31.3618 27.0735 32.9993V180.658C27.0735 182.296 28.7969 183.627 30.9159 183.627H166.858C168.976 183.627 170.699 182.296 170.699 180.658V32.9987C170.699 31.3618 168.976 30.0296 166.858 30.0296L30.9159 30.0301Z"
        fill="#EBEBEB" />
    <path
        d="M319.131 183.763H183.19C180.974 183.763 179.172 182.37 179.172 180.658V32.9987C179.172 31.2867 180.975 29.8936 183.19 29.8936H319.131C321.347 29.8936 323.149 31.2867 323.149 32.9987V180.658C323.15 182.37 321.347 183.763 319.131 183.763ZM183.19 30.0301C181.071 30.0301 179.348 31.3618 179.348 32.9993V180.658C179.348 182.296 181.071 183.627 183.19 183.627H319.131C321.25 183.627 322.973 182.296 322.973 180.658V32.9987C322.973 31.3618 321.25 30.0296 319.131 30.0296L183.19 30.0301Z"
        fill="#EBEBEB" />
    <path d="M138.847 83.2842H47.0186V86.9301H138.847V83.2842Z" fill="#E0E0E0" />
    <path d="M55.2903 69.8457H51.2451V83.2847H55.2903V69.8457Z" fill="#EBEBEB" />
    <path d="M74.8525 69.8457H70.8066V83.2847H74.8525V69.8457Z" fill="#EBEBEB" />
    <path d="M97.0595 69.515L93.0723 70.0459L96.0254 83.29L100.013 82.7591L97.0595 69.515Z" fill="#EBEBEB" />
    <path d="M60.3037 71.6172H56.2578V83.2849H60.3037V71.6172Z" fill="#EBEBEB" />
    <path d="M69.6025 71.6172H65.5566V83.2849H69.6025V71.6172Z" fill="#EBEBEB" />
    <path d="M93.0732 71.6172H89.0273V83.2849H93.0732V71.6172Z" fill="#EBEBEB" />
    <path d="M80.1674 71.2164L76.2178 71.8945L79.4928 83.2845L83.4424 82.6064L80.1674 71.2164Z" fill="#EBEBEB" />
    <path d="M63.8009 69.1787H61.7783V83.2846H63.8009V69.1787Z" fill="#EBEBEB" />
    <path d="M87.8644 69.1787H85.8418V83.2846H87.8644V69.1787Z" fill="#EBEBEB" />
    <path d="M130.035 72.6484H110.323V83.1645H130.035V72.6484Z" fill="#EBEBEB" />
    <path d="M47.0183 114.147L138.847 114.147V110.502L47.0183 110.502V114.147Z" fill="#E0E0E0" />
    <path d="M130.574 110.502H134.62V97.063H130.574V110.502Z" fill="#EBEBEB" />
    <path d="M111.013 110.502H115.059V97.063H111.013V110.502Z" fill="#EBEBEB" />
    <path d="M85.8445 109.971L89.8311 110.502L92.7842 97.2578L88.7976 96.7271L85.8445 109.971Z" fill="#EBEBEB" />
    <path d="M125.562 110.502H129.607V98.8342H125.562V110.502Z" fill="#EBEBEB" />
    <path d="M116.263 110.502H120.309V98.8342H116.263V110.502Z" fill="#EBEBEB" />
    <path d="M92.792 110.502H96.8379V98.8342H92.792V110.502Z" fill="#EBEBEB" />
    <path d="M102.424 109.823L106.374 110.501L109.649 99.1104L105.7 98.4323L102.424 109.823Z" fill="#EBEBEB" />
    <path d="M122.064 110.502H124.087V96.396H122.064V110.502Z" fill="#EBEBEB" />
    <path d="M98.0008 110.502H100.023V96.396H98.0008V110.502Z" fill="#EBEBEB" />
    <path d="M55.83 110.382H75.542V99.8658H55.83V110.382Z" fill="#EBEBEB" />
    <path
        d="M302.704 55.6021H190.543C189.718 55.6021 189.049 55.0853 189.049 54.4477V53.2139C189.049 52.5764 189.718 52.0596 190.543 52.0596H302.705C303.53 52.0596 304.199 52.5764 304.199 53.2139V54.4477C304.198 55.0853 303.529 55.6021 302.704 55.6021Z"
        fill="#E0E0E0" />
    <path d="M297.359 54.8779H195.89V124.453H297.359V54.8779Z" fill="#E6E6E6" />
    <path d="M294.687 56.7852H198.43V122.584H294.687V56.7852Z" fill="#F0F0F0" />
    <path d="M221.02 56.7852L198.43 122.441V91.5892L210.358 56.7852H221.02Z" fill="white" />
    <path d="M229.022 56.7852L206.233 122.584H202.596L225.385 56.7852H229.022Z" fill="white" />
    <path d="M294.688 98.3037V108.818L290.077 122.583H286.439L294.688 98.3037Z" fill="white" />
    <path d="M232.004 55.6025H230.382V124.053H232.004V55.6025Z" fill="#E6E6E6" />
    <path d="M263.427 55.6025H261.806V124.053H263.427V55.6025Z" fill="#E6E6E6" />
    <path
        d="M280.821 53.1914C280.821 53.1914 283.154 76.7308 296.58 88.7277C296.58 88.7277 286.802 119.021 286.809 129.584L304.982 126.993L298.432 88.9034L301.565 53.1914H280.821Z"
        fill="#E0E0E0" />
    <path
        d="M212.426 53.1914C212.426 53.1914 210.092 76.7308 196.667 88.7277C196.667 88.7277 206.445 119.021 206.438 129.584L188.266 126.993L194.816 88.9034L191.683 53.1914H212.426Z"
        fill="#E0E0E0" />
    <path
        d="M96.5191 57.1569C104.91 55.6258 110.106 49.1282 108.125 42.6442C106.144 36.1601 97.735 32.1449 89.3439 33.676C80.9528 35.2071 75.7566 41.7046 77.738 48.1887C79.7194 54.6727 88.128 58.6879 96.5191 57.1569Z"
        fill="#E0E0E0" />
    <path
        d="M95.0617 55.5459C102.298 54.6384 107.212 49.3697 106.038 43.7779C104.863 38.1861 98.0452 34.3888 90.8087 35.2963C83.5723 36.2038 78.6581 41.4725 79.8325 47.0643C81.007 52.656 87.8253 56.4534 95.0617 55.5459Z"
        fill="#F0F0F0" />
    <path d="M93.5596 38.3848V45.5552L99.709 42.8662" fill="#F0F0F0" />
    <path d="M93.5596 38.3848V45.5552L99.709 42.8662" stroke="#E0E0E0" stroke-width="2" stroke-miterlimit="10"
        stroke-linecap="round" stroke-linejoin="round" />
    <path
        d="M176 232.593C251.385 232.593 312.498 229.835 312.498 226.433C312.498 223.031 251.385 220.273 176 220.273C100.614 220.273 39.502 223.031 39.502 226.433C39.502 229.835 100.614 232.593 176 232.593Z"
        fill="#F5F5F5" />
    <path
        d="M57.1395 209.358C57.0325 208.801 54.5685 195.664 59.5042 191.129C60.5969 190.125 61.9753 189.6 63.6022 189.569C73.5659 189.389 74.9289 195.573 74.9409 195.636L73.7659 195.776C73.7201 195.554 72.5388 190.321 63.6311 190.488C62.3421 190.512 61.2896 190.915 60.4138 191.72C55.8188 195.942 58.2891 209.09 58.3152 209.222L57.1395 209.358Z"
        fill="#00A28E" />
    <path
        d="M56.5364 208.759L55.3481 208.73C55.353 208.609 55.743 196.626 48.1018 194.151C40.6133 191.726 37.2447 196.711 37.1053 196.924L36.043 196.511C36.0817 196.452 40.0346 190.541 48.5615 193.303C56.9546 196.023 56.5568 208.241 56.5364 208.759Z"
        fill="#00A28E" />
    <path
        d="M56.5707 209.701C56.5707 209.51 56.4995 190.558 51.7173 185.014C47.1258 179.693 39.719 182.198 39.4064 182.308L38.915 181.471C39.0009 181.441 47.5482 178.526 52.7064 184.505C57.6872 190.278 57.759 208.91 57.7597 209.7L56.5707 209.701Z"
        fill="#00A28E" />
    <path
        d="M65.0274 190.025C65.0274 190.025 60.6774 191.264 61.9707 194.19C63.2639 197.116 77.0201 201.931 77.0201 201.931C77.0201 201.931 82.7816 197.851 77.4904 191.214C72.1998 184.578 65.145 187.931 65.0274 190.025Z"
        fill="#00A28E" />
    <path
        d="M51.5017 184.016C51.5017 184.016 54.5902 183.759 54.3417 182.306C54.0932 180.852 42.3357 177.111 35.3984 183.161C35.3984 183.161 39.84 189.057 46.2612 189.134C52.6823 189.211 51.5017 184.016 51.5017 184.016Z"
        fill="#00A28E" />
    <path
        d="M48.3315 193.727C48.3315 193.727 50.4632 192.397 48.1625 191.748C45.8618 191.099 34.5746 191.283 34.457 199.923C34.457 199.923 47.6028 201.611 49.2305 198.321C50.8581 195.029 48.3315 193.727 48.3315 193.727Z"
        fill="#00A28E" />
    <path opacity="0.2"
        d="M65.0274 190.025C65.0274 190.025 60.6774 191.264 61.9707 194.19C63.2639 197.116 77.0201 201.931 77.0201 201.931C77.0201 201.931 82.7816 197.851 77.4904 191.214C72.1998 184.578 65.145 187.931 65.0274 190.025Z"
        fill="white" />
    <path opacity="0.2"
        d="M51.5017 184.016C51.5017 184.016 54.5902 183.759 54.3417 182.306C54.0932 180.852 42.3357 177.111 35.3984 183.161C35.3984 183.161 39.84 189.057 46.2612 189.134C52.6823 189.211 51.5017 184.016 51.5017 184.016Z"
        fill="white" />
    <path opacity="0.2"
        d="M48.3315 193.727C48.3315 193.727 50.4632 192.397 48.1625 191.748C45.8618 191.099 34.5746 191.283 34.457 199.923C34.457 199.923 47.6028 201.611 49.2305 198.321C50.8581 195.029 48.3315 193.727 48.3315 193.727Z"
        fill="white" />
    <path d="M67.3659 226.959H46.9654L44.7646 209.699H69.5666L67.3659 226.959Z" fill="#00A28E" />
    <path opacity="0.5" d="M67.3659 226.959H46.9654L44.7646 209.699H69.5666L67.3659 226.959Z" fill="white" />
    <path d="M70.6549 207.796H43.6748V211.604H70.6549V207.796Z" fill="#00A28E" />
    <path opacity="0.2" d="M70.6549 207.796H43.6748V211.604H70.6549V207.796Z" fill="white" />
    <path
        d="M276.84 145.184H207.522C204.087 145.184 201.303 147.335 201.303 149.989L192.85 191.584H274.604L283.058 149.989C283.058 147.335 280.274 145.184 276.84 145.184Z"
        fill="#00A28E" />
    <path opacity="0.4"
        d="M276.84 145.184H207.522C204.087 145.184 201.303 147.335 201.303 149.989L192.85 191.584H274.604L283.058 149.989C283.058 147.335 280.274 145.184 276.84 145.184Z"
        fill="white" />
    <path opacity="0.2"
        d="M262.168 192.2H274.606L283.059 149.989C283.059 147.335 280.275 145.184 276.841 145.184C273.406 145.184 270.622 147.335 270.622 149.989L262.168 192.2Z"
        fill="black" />
    <path
        d="M190.262 172.15L160.789 172.149C160.685 172.146 160.582 172.137 160.476 172.137C156.286 172.137 152.889 174.762 152.889 178V230.142H160.789H168.063H197.397V178C197.397 174.847 194.3 172.283 190.262 172.15Z"
        fill="#00A28E" />
    <path opacity="0.5"
        d="M190.262 172.15L160.789 172.149C160.685 172.146 160.582 172.137 160.476 172.137C156.286 172.137 152.889 174.762 152.889 178V230.142H160.789H168.063H197.397V178C197.397 174.847 194.3 172.283 190.262 172.15Z"
        fill="white" />
    <path opacity="0.6"
        d="M160.476 172.137C156.286 172.137 152.889 174.762 152.889 178V230.142H168.063V178C168.063 174.762 164.667 172.137 160.476 172.137Z"
        fill="white" />
    <path d="M231.033 186.895H173.019V230.143H231.033V186.895Z" fill="#00A28E" />
    <path opacity="0.4" d="M231.033 186.895H173.019V230.143H231.033V186.895Z" fill="white" />
    <path
        d="M243.396 195.598H177.253C172.838 195.598 169.259 192.833 169.259 189.421C169.259 186.009 172.838 183.243 177.253 183.243H243.396V195.598Z"
        fill="#00A28E" />
    <path opacity="0.6"
        d="M243.396 195.598H177.253C172.838 195.598 169.259 192.833 169.259 189.421C169.259 186.009 172.838 183.243 177.253 183.243H243.396V195.598Z"
        fill="white" />
    <path
        d="M268.405 172.15L238.933 172.149C238.828 172.146 238.726 172.137 238.62 172.137C234.43 172.137 231.032 174.762 231.032 178V230.142H238.933H246.207H275.541V178C275.541 174.847 272.444 172.283 268.405 172.15Z"
        fill="#00A28E" />
    <path opacity="0.5"
        d="M268.405 172.15L238.933 172.149C238.828 172.146 238.726 172.137 238.62 172.137C234.43 172.137 231.032 174.762 231.032 178V230.142H238.933H246.207H275.541V178C275.541 174.847 272.444 172.283 268.405 172.15Z"
        fill="white" />
    <path opacity="0.6"
        d="M238.62 172.137C234.43 172.137 231.032 174.762 231.032 178V230.142H246.207V178C246.207 174.762 242.81 172.137 238.62 172.137Z"
        fill="white" />
    <path d="M308.756 170.94H256.449V226.959H308.756V170.94Z" fill="#00A28E" />
    <path opacity="0.2" d="M308.755 170.94H292.707V226.959H308.755V170.94Z" fill="black" />
    <path opacity="0.2" d="M289.127 172.941H259.049V181.681H289.127V172.941Z" fill="white" />
    <path opacity="0.2" d="M289.127 183.822H259.049V192.562H289.127V183.822Z" fill="white" />
    <path opacity="0.2" d="M289.127 194.702H259.049V217.945H289.127V194.702Z" fill="white" />
    <path opacity="0.2"
        d="M273.321 175.545C273.976 175.545 274.507 175.135 274.507 174.629C274.507 174.122 273.976 173.712 273.321 173.712C272.666 173.712 272.135 174.122 272.135 174.629C272.135 175.135 272.666 175.545 273.321 175.545Z"
        fill="black" />
    <path opacity="0.2"
        d="M273.321 186.039C273.976 186.039 274.507 185.629 274.507 185.123C274.507 184.616 273.976 184.206 273.321 184.206C272.666 184.206 272.135 184.616 272.135 185.123C272.135 185.629 272.666 186.039 273.321 186.039Z"
        fill="black" />
    <path opacity="0.2"
        d="M261.689 206.323C261.689 206.829 261.158 207.24 260.503 207.24C259.847 207.24 259.316 206.829 259.316 206.323C259.316 205.816 259.847 205.406 260.503 205.406C261.158 205.406 261.689 205.817 261.689 206.323Z"
        fill="black" />
    <path d="M290.067 136.09H286.685V170.941H290.067V136.09Z" fill="#263238" />
    <path d="M270.318 148.066H306.434L303.511 128.318H273.241L270.318 148.066Z" fill="#00A28E" />
    <g opacity="0.6">
        <path d="M270.318 148.066H306.434L303.511 128.318H273.241L270.318 148.066Z" fill="white" />
    </g>
    <path opacity="0.2" d="M286.685 156.015V170.941H290.067V154.383L286.685 156.015Z" fill="white" />
    <path d="M294.295 169.408H282.458L280.346 170.941H296.407L294.295 169.408Z" fill="#00A28E" />
    <path opacity="0.2" d="M294.295 169.408H282.458L280.346 170.941H296.407L294.295 169.408Z" fill="white" />
    <path
        d="M97.8468 88.225C96.9682 87.8186 95.9101 87.6146 94.7654 87.7827C91.7523 88.2244 91.0335 90.5201 91.4383 92.1946C91.7143 93.3348 92.9554 94.796 94.8548 95.1632C97.2266 95.6218 99.3189 93.9261 99.9314 92.6521C100.687 91.0766 99.9954 89.2189 97.8468 88.225Z"
        fill="#263238" />
    <path
        d="M150.972 113.241L162.878 110.659C162.878 110.659 162.892 110.132 164.729 109.101C166.566 108.071 171.537 107.283 171.537 107.283C171.537 107.283 173.816 112.379 173.078 112.523C172.34 112.667 165.656 114.389 165.285 113.815L152.636 116.587L150.972 113.241Z"
        fill="#B97964" />
    <path
        d="M114.7 102.61C121.653 104.346 132.471 113.816 134.582 114.39C136.693 114.964 156.918 111.583 156.918 111.583L159.753 115.603C159.753 115.603 141.197 120.79 134.582 120.388C127.966 119.985 119.348 112.414 113.167 111.321L114.7 102.61Z"
        fill="#00A28E" />
    <path opacity="0.5"
        d="M159.752 115.602C159.752 115.602 141.194 120.792 134.584 120.389C130.31 120.128 125.206 116.88 120.468 114.318C117.857 112.915 115.357 111.712 113.168 111.321L113.971 106.762L114.703 102.611C121.651 104.347 132.472 113.812 134.584 114.389C136.689 114.96 156.915 111.582 156.915 111.582L159.752 115.602Z"
        fill="white" />
    <path opacity="0.2"
        d="M120.468 114.319C117.857 112.915 115.357 111.713 113.168 111.321L113.971 106.763C115.963 108.259 119.032 110.973 120.468 114.319Z"
        fill="black" />
    <path
        d="M124.935 219.422L120.246 220.061L118.323 215.121L116.568 210.586L121.975 209.127L123.545 214.577L124.935 219.422Z"
        fill="#E4897B" />
    <path
        d="M119.188 219.966C119.109 219.566 125.533 219.012 125.533 219.012C125.533 219.012 130.142 221.55 134.095 221.722C138.049 221.894 136.33 223.944 132.088 224.522C127.845 225.101 124.608 225.543 121.593 225.954C118.579 226.366 120.009 224.125 119.188 219.966Z"
        fill="#263238" />
    <path
        d="M128.688 219.841C127.81 219.841 126.69 219.615 126.387 219.55C126.366 219.546 126.347 219.539 126.331 219.529C126.314 219.52 126.299 219.508 126.287 219.493C126.287 219.493 126.287 219.493 126.287 219.493C126.28 219.483 126.273 219.473 126.269 219.461L126.268 219.461C126.261 219.441 126.26 219.421 126.264 219.402C126.277 219.345 126.549 218.131 127.345 217.737C127.599 217.611 127.876 217.581 128.171 217.642C128.485 217.708 128.657 217.828 128.683 217.997C128.723 218.258 128.329 218.578 127.861 218.862C128.389 218.749 128.941 218.686 129.313 218.788C129.51 218.843 129.65 218.939 129.728 219.073C129.89 219.352 129.8 219.523 129.694 219.618C129.512 219.783 129.131 219.841 128.688 219.841ZM126.949 219.388C127.956 219.567 129.18 219.679 129.436 219.447C129.458 219.427 129.526 219.366 129.419 219.182C129.379 219.114 129.307 219.066 129.198 219.035C128.695 218.894 127.633 219.168 126.949 219.388ZM127.886 217.873C127.761 217.873 127.643 217.902 127.529 217.958C127.094 218.172 126.815 218.761 126.68 219.162C127.558 218.757 128.38 218.251 128.346 218.028C128.335 217.958 128.176 217.915 128.082 217.895C128.014 217.881 127.949 217.873 127.886 217.873Z"
        fill="#00A28E" />
    <path opacity="0.2" d="M123.57 214.689L118.345 215.221L116.579 210.636L121.98 209.152L123.57 214.689Z"
        fill="black" />
    <path d="M93.6295 220.975H88.8676L88.0855 215.851L87.3779 211.15L93.031 210.439L93.3507 216.017L93.6295 220.975Z"
        fill="#E4897B" />
    <path
        d="M87.8468 220.738C87.8595 220.333 94.3088 220.651 94.3088 220.651C94.3088 220.651 98.2766 223.77 102.132 224.47C105.986 225.171 103.833 226.959 99.524 226.959C95.2163 226.959 91.9279 226.959 88.8669 226.959C85.8059 226.959 87.7194 224.944 87.8468 220.738Z"
        fill="#263238" />
    <path
        d="M97.7031 221.926C96.802 221.926 95.3693 221.419 95.03 221.295C95.0074 221.287 94.9877 221.275 94.973 221.261C94.9638 221.252 94.9561 221.243 94.949 221.233C94.9307 221.202 94.9265 221.166 94.9427 221.132C94.9652 221.082 95.5073 219.919 96.3817 219.638C96.659 219.549 96.9406 219.555 97.2166 219.655C97.5102 219.763 97.6531 219.904 97.6404 220.075C97.6214 220.336 97.161 220.6 96.6372 220.816C97.1828 220.774 97.7411 220.786 98.0839 220.938C98.2656 221.018 98.3817 221.132 98.4282 221.275C98.5253 221.571 98.3972 221.727 98.2719 221.807C98.1374 221.892 97.9382 221.926 97.7031 221.926ZM95.6199 221.211C96.5703 221.522 97.7516 221.797 98.0558 221.604C98.0825 221.587 98.1628 221.536 98.0987 221.34C98.0748 221.268 98.0142 221.211 97.9143 221.166C97.4489 220.96 96.3436 221.087 95.6199 221.211ZM96.7738 219.839C96.6872 219.839 96.6006 219.853 96.5126 219.881C96.036 220.034 95.6291 220.576 95.4059 220.953C96.3612 220.672 97.2849 220.284 97.3011 220.06C97.306 219.99 97.1596 219.926 97.0709 219.893C96.9709 219.857 96.8723 219.839 96.7738 219.839Z"
        fill="#00A28E" />
    <path opacity="0.2" d="M93.3507 216.13L88.0855 215.951L87.3779 211.2L93.031 210.464L93.3507 216.13Z" fill="black" />
    <path
        d="M124.012 211.814L116.303 212.864C108.524 197.888 102.99 185.387 99.0831 175.013C96.9781 169.415 95.3378 164.437 94.0776 160.02L94.4296 176.324V213.359H86.6011C67.5579 143.183 81.0536 127.146 81.0536 127.146L103.835 124.138C104.701 126.765 105.356 131.025 105.743 133.99L106.771 139.81L115.676 175.344L124.012 211.814Z"
        fill="#00A28E" />
    <path opacity="0.5"
        d="M124.012 211.814L116.303 212.864C108.524 197.888 102.99 185.387 99.0831 175.013C96.9781 169.415 95.3378 164.437 94.0776 160.02L94.4296 176.324V213.359H86.6011C67.5579 143.183 81.0536 127.146 81.0536 127.146L103.835 124.138C104.701 126.765 105.356 131.025 105.743 133.99L106.771 139.81L115.676 175.344L124.012 211.814Z"
        fill="white" />
    <path d="M115.094 212.127L124.656 209.678L124.527 212.82L116.619 214.77L115.094 212.127Z" fill="#00A28E" />
    <path d="M85.5801 212.47L95.548 211.342L94.7131 214.42L86.4868 215.277L85.5801 212.47Z" fill="#00A28E" />
    <path opacity="0.2"
        d="M99.0826 175.012C96.9776 169.414 95.3373 164.437 94.0771 160.019C94.0771 160.019 94.2039 151.435 95.5485 144.385C95.5485 144.385 98.8855 164.551 99.0826 175.012Z"
        fill="black" />
    <path
        d="M107.585 137.635L97.8525 140.176L96.0475 135.606L94.0784 139.82L76.415 136.645C77.9279 128.263 83.976 121.581 84.925 119.044C86.2358 115.541 87.258 108.836 86.3661 104.501C86.364 104.491 86.3619 104.48 86.3597 104.47C85.9951 102.622 87.7199 100.904 90.1311 100.76C91.8404 100.657 93.5546 100.606 95.2752 100.604C98.6762 100.572 102.08 100.728 105.459 101.067C109.798 101.594 114.7 102.611 114.7 102.611C114.7 102.611 115.377 102.835 115.066 106.439C114.78 109.59 113.998 119.376 105.666 127.661L107.585 137.635Z"
        fill="#00A28E" />
    <path opacity="0.6"
        d="M107.585 137.635L97.8525 140.176L96.0475 135.606L94.0784 139.82L76.415 136.645C77.9279 128.263 83.976 121.581 84.925 119.044C86.2358 115.541 87.258 108.836 86.3661 104.501C86.364 104.491 86.3619 104.48 86.3597 104.47C85.9951 102.622 87.7199 100.904 90.1311 100.76C91.8404 100.657 93.5546 100.606 95.2752 100.604C98.6762 100.572 102.08 100.728 105.459 101.067C109.798 101.594 114.7 102.611 114.7 102.611C114.7 102.611 115.377 102.835 115.066 106.439C114.78 109.59 113.998 119.376 105.666 127.661L107.585 137.635Z"
        fill="white" />
    <path
        d="M97.6768 107.283C97.6768 107.283 101.566 109.889 102.697 116.586L107.082 107.224L110.096 107.932C110.096 107.932 107.776 99.4438 100.213 99.2844C92.6488 99.1244 93.2444 107.935 93.2444 107.935L97.6768 107.283Z"
        fill="#00A28E" />
    <path opacity="0.5"
        d="M97.6768 107.283C97.6768 107.283 101.566 109.889 102.697 116.586L107.082 107.224L110.096 107.932C110.096 107.932 107.776 99.4438 100.213 99.2844C92.6488 99.1244 93.2444 107.935 93.2444 107.935L97.6768 107.283Z"
        fill="white" />
    <path
        d="M108.607 97.7333C108.607 97.7333 105.847 99.114 105.37 100.024C105.342 100.072 105.321 100.132 105.3 100.202C105.125 100.727 105.02 101.772 105.02 101.772C107.17 105.279 103.085 111.321 103.085 111.321C100.671 105.798 96.1641 101.366 96.1641 101.366C100.592 100.024 101.439 93.4678 101.439 93.4678L103.583 94.7456L108.607 97.7333Z"
        fill="#B97964" />
    <path opacity="0.2"
        d="M108.607 97.7337C108.607 97.7337 105.847 99.1144 105.37 100.024C105.342 100.073 105.321 100.132 105.3 100.202C101.278 97.8256 101.79 94.2744 101.79 94.2744L103.583 94.7455L108.607 97.7337Z"
        fill="black" />
    <path
        d="M111.67 82.358C111.67 82.358 117.252 81.1503 119.955 84.6303C122.657 88.1108 120.496 90.7481 118.619 92.0058"
        stroke="#263238" stroke-width="0.4885" stroke-miterlimit="10" stroke-linecap="round" stroke-linejoin="round" />
    <path
        d="M113.896 82.1676C113.896 82.1676 118.443 82.2748 119.7 85.2445C120.957 88.2142 120.023 91.5467 113.273 95.141C109.971 96.8986 101.77 93.4665 101.77 93.4665L101.116 94.999C99.9092 94.3304 98.9039 93.5595 98.1485 92.8736C95.4958 90.4664 96.1801 82.5 103.545 80.9426C111.237 79.3165 113.896 82.1676 113.896 82.1676Z"
        fill="#263238" />
    <path
        d="M109.558 83.159C115.339 83.7671 116.778 86.3549 116.389 91.0029C115.904 96.8117 113.533 100.725 106.521 98.7353C96.9997 96.0327 99.9572 82.1482 109.558 83.159Z"
        fill="#B97964" />
    <path
        d="M112.696 90.3594C112.696 90.3594 113.292 91.6106 114.052 92.389C114.052 92.389 113.45 92.9445 112.439 92.7339L112.696 90.3594Z"
        fill="#A24E3F" />
    <path
        d="M109.222 89.6227C109.169 89.991 108.867 90.2668 108.55 90.239C108.232 90.2113 108.018 89.8909 108.072 89.5226C108.125 89.1543 108.426 88.8785 108.744 88.9062C109.061 88.934 109.276 89.2544 109.222 89.6227Z"
        fill="#263238" />
    <path d="M108.608 88.9126L109.69 88.6885C109.69 88.6885 109.077 89.3173 108.608 88.9126Z" fill="#263238" />
    <path
        d="M115.156 90.0602C115.102 90.4285 114.801 90.7043 114.483 90.6765C114.166 90.6488 113.952 90.3284 114.005 89.9601C114.059 89.5918 114.359 89.316 114.678 89.3437C114.995 89.3709 115.209 89.6919 115.156 90.0602Z"
        fill="#263238" />
    <path d="M114.542 89.3501L115.624 89.126C115.624 89.126 115.01 89.7548 114.542 89.3501Z" fill="#263238" />
    <path d="M109.708 86.5317C109.708 86.5317 108.112 86.1976 107.082 86.9429" stroke="#263238" stroke-width="0.708"
        stroke-miterlimit="10" stroke-linecap="round" stroke-linejoin="round" />
    <path d="M113.943 86.7851C113.943 86.7851 115.016 86.6007 116.183 87.395" stroke="#263238" stroke-width="0.708"
        stroke-miterlimit="10" stroke-linecap="round" stroke-linejoin="round" />
    <path
        d="M101.912 90.023C101.912 90.023 105.262 86.6371 105.352 83.761C105.352 83.761 117.445 81.3505 116.426 90.3951C116.426 90.3951 118.952 82.5343 109.046 81.3108C99.1552 80.089 96.8559 90.6306 101.398 94.5181C101.398 94.5181 99.8353 92.1424 101.912 90.023Z"
        fill="#263238" />
    <path
        d="M102.69 91.0658C102.778 90.3422 102.033 89.0241 100.276 88.9877C98.4578 88.9501 97.1026 91.7022 101.439 92.8544C102.061 93.0198 102.506 92.5748 102.69 91.0658Z"
        fill="#B97964" />
    <path
        d="M112.129 94.069C111.823 94.6392 111.547 95.6989 111.547 95.6989C111.418 95.6967 111.289 95.6945 111.161 95.6874C109.415 95.6254 108.633 95.1511 108.293 94.6441C108.11 94.3661 108.062 94.075 108.065 93.8389C108.063 93.5658 108.143 93.3711 108.143 93.3711C109.042 93.8313 110.664 93.9858 111.534 94.0402C111.898 94.0663 112.129 94.069 112.129 94.069Z"
        fill="#263238" />
    <path
        d="M111.534 94.0408L111.346 94.5178C109.702 94.4564 108.556 94.2426 108.063 93.8389C108.062 93.5658 108.142 93.3711 108.142 93.3711C109.042 93.8313 110.663 93.9858 111.534 94.0408Z"
        fill="white" />
    <path
        d="M111.16 95.6879C109.415 95.6259 108.632 95.1515 108.293 94.6445C108.886 94.6832 109.597 94.7811 110.213 95.0101C110.686 95.1836 110.974 95.4361 111.16 95.6879Z"
        fill="#DE5753" />
    <path
        d="M96.7315 87.3945L97.1518 80.4416L95.5664 78.5208C95.5664 78.5208 101.73 76.5841 108.395 77.8032L113.896 82.1672C113.896 82.1672 103.282 80.1277 96.7315 87.3945Z"
        fill="#00A28E" />
    <path opacity="0.6"
        d="M113.893 82.1678C113.893 82.1678 107.895 81.0145 102.137 83.5332C100.229 84.3601 98.3562 85.5895 96.73 87.3956L97.1524 80.4433L95.5684 78.523C95.5684 78.523 101.728 76.5863 108.395 77.8049L113.893 82.1678Z"
        fill="white" />
    <path opacity="0.1"
        d="M102.136 83.5337C100.228 84.3606 98.3552 85.59 96.729 87.3961L97.1514 80.4438L95.5674 78.5234L102.136 83.5337Z"
        fill="black" />
    <path
        d="M123.874 132.292L131.679 133.671C131.679 133.671 134.464 133.76 137.389 134.423C140.313 135.085 143.484 136.052 143.012 136.645C142.541 137.237 137.477 140.377 135.857 140.176C134.237 139.974 129.683 137.99 130.194 137.022L122.628 135.605L123.874 132.292Z"
        fill="#B97964" />
    <path
        d="M88.4956 101.131C91.2638 100.502 96.6508 120.718 100.623 124.137C104.596 127.555 128.527 132.597 128.527 132.597L127.316 136.644C127.316 136.644 97.9743 133.884 94.0777 129.588C90.1817 125.293 84.7504 113.711 84.0541 107.934C83.3586 102.158 86.861 101.502 88.4956 101.131Z"
        fill="#00A28E" />
    <path opacity="0.5"
        d="M88.4956 101.131C91.2638 100.502 96.6508 120.718 100.623 124.137C104.596 127.555 128.527 132.597 128.527 132.597L127.316 136.644C127.316 136.644 97.9743 133.884 94.0777 129.588C90.1817 125.293 84.7504 113.711 84.0541 107.934C83.3586 102.158 86.861 101.502 88.4956 101.131Z"
        fill="white" />
    <path d="M113.598 118.21L105.864 117.805L106.415 114.472L114.15 114.876L113.598 118.21Z" fill="#00A28E" />
    <path opacity="0.5" d="M113.187 117.949L106.531 117.601L107.006 114.732L113.661 115.081L113.187 117.949Z"
        fill="white" />
    <path d="M110.512 113.564L109.77 115.179H111.013V113.564H110.512Z" fill="#263238" />
    <path
        d="M133.926 137.018L126.717 138.066C126.717 138.066 119.18 136.796 117.869 137.018C116.559 137.24 113.166 142.383 113.166 142.383C113.166 142.383 124.751 144.335 126.225 143.953C127.699 143.57 128.928 142.088 128.928 142.088L134.581 141.279L133.926 137.018Z"
        fill="#E4897B" />
    <path
        d="M148.642 110.648C145.232 114.604 150.183 130.647 150.493 131.665C150.803 132.682 130.193 136.993 130.193 136.993L133.164 144.011C133.164 144.011 158.854 141.724 161.698 139.355C164.542 136.986 161.343 117.536 161.343 117.536L148.642 110.65L148.642 110.648Z"
        fill="#00A28E" />
    <path opacity="0.4"
        d="M161.701 139.356C159.273 141.375 140.237 143.338 134.682 143.871C133.717 143.964 133.161 144.013 133.161 144.013L130.19 136.99C130.19 136.99 130.697 136.887 131.542 136.702C136.125 135.722 150.754 132.524 150.494 131.664C150.184 130.647 145.235 114.604 148.642 110.649L150.846 111.367L158.139 115.654L161.342 117.536C161.342 117.536 162.589 125.093 162.835 131.359V131.365C162.983 135.151 162.772 138.464 161.701 139.356Z"
        fill="black" />
    <path opacity="0.1"
        d="M134.682 143.872C133.717 143.965 133.161 144.014 133.161 144.014L130.19 136.99C130.19 136.99 130.697 136.887 131.542 136.702L134.682 143.872Z"
        fill="black" />
    <path opacity="0.2"
        d="M162.835 131.361C158.625 126.133 158.196 120.404 158.14 115.655L161.343 117.538C161.343 117.538 162.589 125.094 162.835 131.361Z"
        fill="black" />
    <path
        d="M102.407 226.944L107.367 164.86H147.263L152.224 226.944H155.75L149.374 147.137C149.061 143.349 144.969 140.382 140.057 140.382H114.574C109.662 140.382 105.57 143.349 105.256 147.139L98.8809 226.944H102.407ZM108.769 147.31C108.964 144.95 111.513 143.102 114.574 143.102H140.057C143.117 143.102 145.667 144.95 145.861 147.308L147.046 162.14H107.585L108.769 147.31Z"
        fill="#00A28E" />
    <path d="M176.073 222.825L170.565 224.069L167.317 214.859L172.825 213.614L176.073 222.825Z" fill="#B97964" />
    <path
        d="M169.967 222.094H176.684C176.911 222.095 177.107 222.216 177.156 222.388L178.246 226.192C178.34 226.533 178.058 226.868 177.617 226.94C177.558 226.95 177.498 226.954 177.437 226.953C175.263 226.926 173.681 226.823 170.951 226.823C169.27 226.823 164.199 226.959 161.878 226.959C159.557 226.959 159.254 225.187 160.204 225.024C164.466 224.306 167.674 223.311 169.039 222.366C169.291 222.186 169.624 222.089 169.967 222.094Z"
        fill="#263238" />
    <path opacity="0.2" d="M172.825 213.614L167.317 214.859L168.997 219.609L174.505 218.364L172.825 213.614Z"
        fill="black" />
    <path
        d="M193.975 134.676C193.975 134.676 196.332 142.916 195.838 152.491C195.343 162.066 167.326 173.96 166.793 177.308C166.261 180.656 175.418 215.638 175.418 215.638L165.746 218.289C165.746 218.289 146.646 186.619 146.422 178.867C146.198 171.115 167.316 152.491 173.077 147.352C175.314 145.357 173.113 137.325 173.113 137.325L193.975 134.676Z"
        fill="#263238" />
    <path opacity="0.3"
        d="M195.838 152.489C195.662 155.954 191.882 159.719 187.102 163.276C179.484 168.945 169.333 174.08 167.193 176.593C166.96 176.86 166.827 177.099 166.791 177.306C166.263 180.657 175.415 215.636 175.415 215.636L165.749 218.286C165.749 218.286 146.65 186.619 146.425 178.867C146.199 171.115 167.319 152.489 173.078 147.353C175.317 145.357 173.113 137.322 173.113 137.322L193.973 134.673C193.973 134.673 196.331 142.914 195.838 152.489Z"
        fill="white" />
    <path d="M165.15 219.598L176.925 216.513L175.948 213.976L163.659 217.014L165.15 219.598Z" fill="#00A28E" />
    <path opacity="0.6" d="M165.15 219.598L176.925 216.513L175.948 213.976L163.659 217.014L165.15 219.598Z"
        fill="white" />
    <path opacity="0.2"
        d="M187.101 163.277C179.484 168.945 169.333 174.081 167.192 176.594C167.601 165.328 185.201 153.338 185.201 153.338L187.101 163.277Z"
        fill="black" />
    <path d="M202.731 222.825L197.223 224.069L193.976 214.859L199.484 213.614L202.731 222.825Z" fill="#B97964" />
    <path
        d="M196.625 222.094H203.343C203.57 222.095 203.765 222.216 203.814 222.388L204.904 226.192C204.997 226.533 204.716 226.868 204.275 226.94C204.216 226.95 204.156 226.954 204.096 226.953C201.922 226.926 200.339 226.823 197.61 226.823C195.928 226.823 190.857 226.959 188.535 226.959C186.213 226.959 185.911 225.187 186.861 225.024C191.124 224.306 194.331 223.311 195.696 222.366C195.95 222.186 196.283 222.089 196.625 222.094Z"
        fill="#263238" />
    <path opacity="0.2" d="M199.484 213.614L193.976 214.859L195.655 219.609L201.163 218.364L199.484 213.614Z"
        fill="black" />
    <path
        d="M204.922 132.738C204.922 132.738 209.856 140.634 209.362 150.209C208.868 159.784 193.984 173.96 193.452 177.308C192.92 180.655 202.077 215.638 202.077 215.638L192.405 218.288C192.405 218.288 173.304 186.618 173.08 178.866C172.856 171.114 185.203 153.337 185.203 153.337L182.631 135.712L204.922 132.738Z"
        fill="#263238" />
    <path opacity="0.3"
        d="M204.922 132.738C204.922 132.738 209.856 140.634 209.362 150.209C208.868 159.784 193.984 173.96 193.452 177.308C192.92 180.655 202.077 215.638 202.077 215.638L192.405 218.288C192.405 218.288 173.304 186.618 173.08 178.866C172.856 171.114 185.203 153.337 185.203 153.337L182.631 135.712L204.922 132.738Z"
        fill="white" />
    <path d="M191.808 219.598L203.584 216.513L202.606 213.976L190.317 217.014L191.808 219.598Z" fill="#00A28E" />
    <path opacity="0.6" d="M191.808 219.598L203.584 216.513L202.606 213.976L190.317 217.014L191.808 219.598Z"
        fill="white" />
    <path
        d="M209.398 144.002C209.398 144.002 175.806 147.917 172.468 145.835C167.548 142.767 162.099 117.102 148.642 110.648C148.642 110.648 150.205 108.513 153.641 106.014C156.838 103.682 161.662 101.035 168.355 99.504C172.062 98.6559 176.345 98.1559 181.248 98.2457C181.248 98.2457 207.618 112.709 209.398 144.002Z"
        fill="#00A28E" />
    <path opacity="0.3"
        d="M209.398 144.002C209.398 144.002 175.803 147.919 172.466 145.836C172.156 145.645 171.846 145.362 171.537 145.003C166.834 139.634 161.258 116.699 148.643 110.65C148.643 110.65 150.205 108.512 153.641 106.015C153.824 105.884 154.007 105.748 154.204 105.612C157.393 103.382 162.04 100.95 168.355 99.5032C168.629 99.4379 168.911 99.3781 169.192 99.3237C172.705 98.5839 176.711 98.1595 181.245 98.2466C181.245 98.2466 187.123 101.473 193.516 108.169C196.775 111.585 200.175 115.91 202.998 121.171C206.047 126.861 208.419 133.65 209.201 141.576C209.285 142.376 209.348 143.181 209.398 144.002Z"
        fill="black" />
    <path opacity="0.1"
        d="M169.192 99.3232C168.552 101.804 167.024 106.939 164.405 111.59C164.405 111.59 157.513 109.621 154.204 105.612C157.393 103.381 162.04 100.95 168.355 99.5028C168.629 99.4375 168.911 99.3776 169.192 99.3232Z"
        fill="black" />
    <path opacity="0.1"
        d="M209.397 144.002C209.397 144.002 175.802 147.919 172.465 145.836C172.156 145.645 171.846 145.362 171.536 145.003C178.365 145.177 192.565 144.987 209.2 141.576C209.285 142.376 209.348 143.181 209.397 144.002Z"
        fill="black" />
    <path opacity="0.2"
        d="M202.998 121.171C191.22 118.772 185.096 108.533 185.096 108.533L193.516 108.169C196.775 111.585 200.175 115.91 202.998 121.171Z"
        fill="black" />
    <path
        d="M167.544 99.8844C165.503 105.64 162.539 106.63 160.216 106.293C158.174 105.999 156.618 104.682 156.618 104.682C156.618 104.682 156.984 104.226 156.942 103.562C156.914 102.963 156.562 102.191 155.33 101.429C154.894 101.157 154.401 100.929 153.915 100.706L154.063 99.2262L154.774 92.2031C155.802 93.3836 157.308 95.0537 159.075 96.5442C159.603 96.9903 160.16 97.4255 160.73 97.8226C162.87 99.3186 165.249 100.325 167.544 99.8844Z"
        fill="#E4897B" />
    <path opacity="0.2"
        d="M160.216 106.292C158.174 105.999 156.618 104.682 156.618 104.682C156.618 104.682 156.984 104.225 156.942 103.561C156.914 102.963 156.562 102.191 155.33 101.429C154.894 101.157 154.401 100.929 153.915 100.705L154.063 99.2258L160.73 97.8223C160.73 97.8223 162.405 102.958 160.216 106.292Z"
        fill="black" />
    <path
        d="M143.562 91.8998C143.562 91.8998 141.566 91.7355 141.241 93.7368C140.916 95.7377 141.796 95.7752 141.796 95.7752C141.796 95.7752 141.121 97.4545 141.968 97.9256C142.815 98.3973 143.561 100.4 143.561 100.4L145.531 97.6025L143.562 91.8998Z"
        fill="#263238" />
    <path opacity="0.6"
        d="M143.562 91.8998C143.562 91.8998 141.566 91.7355 141.241 93.7368C140.916 95.7377 141.796 95.7752 141.796 95.7752C141.796 95.7752 141.121 97.4545 141.968 97.9256C142.815 98.3973 143.561 100.4 143.561 100.4L145.531 97.6025L143.562 91.8998Z"
        fill="white" />
    <path
        d="M158.949 102.181C158.814 102.397 158.654 102.618 158.481 102.835C156.532 105.297 153.104 106.068 150.034 105.468C148.057 105.08 146.23 104.119 145.037 102.675C144.872 102.488 144.728 102.288 144.589 102.08C144.324 101.666 144.069 101.214 143.837 100.734C141.951 96.8332 139.992 91.5058 146.093 88.6678C149.939 86.8791 156.39 86.6545 158.694 89.6405C161.572 93.3707 159.919 96.9578 159.919 96.9578C160.263 98.4914 160.61 99.6006 158.949 102.181Z"
        fill="#E4897B" />
    <path
        d="M161.48 93.2993C161.48 93.2993 162.501 93.2634 162.083 92.2026C161.665 91.1418 159.919 90.4661 159.919 90.4661C159.919 90.4661 161.294 89.7486 159.484 89.067C158.606 88.7368 157.501 88.6873 156.483 88.9255C155.871 88.5311 150.496 85.1953 146.838 87.1809C146.759 87.2244 146.74 87.3088 146.796 87.3702C146.852 87.4317 146.962 87.4469 147.041 87.4034C150.225 85.6746 155.034 88.3891 156.092 89.0327C156 89.0621 155.91 89.0947 155.82 89.129C154.725 88.7471 146.639 86.0657 143.915 89.2182C143.861 89.2808 143.884 89.3651 143.964 89.407C144.044 89.4483 144.154 89.432 144.208 89.3694C146.595 86.607 153.767 88.7498 155.434 89.2976C155.255 89.3857 155.082 89.4826 154.921 89.5936C153.247 89.2367 147.939 88.2716 144.757 89.6104C143.629 90.0853 142.887 90.8072 142.551 91.7565C142.526 91.8288 142.581 91.9034 142.674 91.9235C142.69 91.9268 142.705 91.9284 142.721 91.9284C142.798 91.9284 142.869 91.8887 142.89 91.8283C143.2 90.953 143.884 90.2877 144.925 89.8492C147.834 88.6241 152.794 89.4467 154.629 89.8166C154.342 90.0614 154.098 90.3497 153.918 90.6832C152.948 92.4773 154.516 93.1573 155.537 94.062C156.541 94.9514 156.084 96.4534 156.068 96.504C155.488 97.7628 153.918 98.7888 153.918 98.7888C153.918 98.7888 153.17 98.4662 151.879 98.7888C150.589 99.1119 149.891 100.331 149.891 100.331C146.798 100.08 146.3 102.033 146.3 102.033C144.258 101.008 143.161 99.0755 143.161 99.0755C142.855 101.228 143.886 103.523 144.861 104.456C145.835 105.388 146.346 104.456 146.346 104.456C146.346 104.456 146.578 106.285 147.899 106.966C149.221 107.648 149.688 106.823 149.688 106.823C149.688 106.823 150.385 107.97 152.891 108.473C155.398 108.975 156.186 106.177 156.186 106.177C158.925 107.791 158.692 103.953 158.692 103.953C158.692 103.953 160.038 104.24 159.909 102.357C159.808 100.892 158.117 98.0506 157.37 96.8603C158.483 96.7227 160.201 98.6892 160.201 98.6892C165.007 98.9841 161.48 93.2993 161.48 93.2993Z"
        fill="#263238" />
    <path opacity="0.6"
        d="M161.48 93.2993C161.48 93.2993 162.501 93.2634 162.083 92.2026C161.665 91.1418 159.919 90.4661 159.919 90.4661C159.919 90.4661 161.294 89.7486 159.484 89.067C158.606 88.7368 157.501 88.6873 156.483 88.9255C155.871 88.5311 150.496 85.1953 146.838 87.1809C146.759 87.2244 146.74 87.3088 146.796 87.3702C146.852 87.4317 146.962 87.4469 147.041 87.4034C150.225 85.6746 155.034 88.3891 156.092 89.0327C156 89.0621 155.91 89.0947 155.82 89.129C154.725 88.7471 146.639 86.0657 143.915 89.2182C143.861 89.2808 143.884 89.3651 143.964 89.407C144.044 89.4483 144.154 89.432 144.208 89.3694C146.595 86.607 153.767 88.7498 155.434 89.2976C155.255 89.3857 155.082 89.4826 154.921 89.5936C153.247 89.2367 147.939 88.2716 144.757 89.6104C143.629 90.0853 142.887 90.8072 142.551 91.7565C142.526 91.8288 142.581 91.9034 142.674 91.9235C142.69 91.9268 142.705 91.9284 142.721 91.9284C142.798 91.9284 142.869 91.8887 142.89 91.8283C143.2 90.953 143.884 90.2877 144.925 89.8492C147.834 88.6241 152.794 89.4467 154.629 89.8166C154.342 90.0614 154.098 90.3497 153.918 90.6832C152.948 92.4773 154.516 93.1573 155.537 94.062C156.541 94.9514 156.084 96.4534 156.068 96.504C155.488 97.7628 153.918 98.7888 153.918 98.7888C153.918 98.7888 153.17 98.4662 151.879 98.7888C150.589 99.1119 149.891 100.331 149.891 100.331C146.798 100.08 146.3 102.033 146.3 102.033C144.258 101.008 143.161 99.0755 143.161 99.0755C142.855 101.228 143.886 103.523 144.861 104.456C145.835 105.388 146.346 104.456 146.346 104.456C146.346 104.456 146.578 106.285 147.899 106.966C149.221 107.648 149.688 106.823 149.688 106.823C149.688 106.823 150.385 107.97 152.891 108.473C155.398 108.975 156.186 106.177 156.186 106.177C158.925 107.791 158.692 103.953 158.692 103.953C158.692 103.953 160.038 104.24 159.909 102.357C159.808 100.892 158.117 98.0506 157.37 96.8603C158.483 96.7227 160.201 98.6892 160.201 98.6892C165.007 98.9841 161.48 93.2993 161.48 93.2993Z"
        fill="white" />
    <path
        d="M150.447 95.6773C150.588 96.033 150.398 96.3812 150.084 96.4367C149.77 96.4922 149.437 96.237 149.325 95.8742C149.214 95.5113 149.382 95.1686 149.689 95.1148C149.995 95.0609 150.333 95.3084 150.447 95.6773Z"
        fill="#263238" />
    <path
        d="M145.105 96.6299C145.246 96.9862 145.048 97.3355 144.742 97.3893C144.435 97.4432 144.095 97.1897 143.984 96.8268C143.872 96.464 144.041 96.1213 144.347 96.0674C144.653 96.0135 145 96.2839 145.105 96.6299Z"
        fill="#263238" />
    <path
        d="M146.856 96.5068C146.628 97.7238 146.182 98.9102 145.532 100.033C146.297 100.279 147.165 100.251 147.901 99.9558L146.856 96.5068Z"
        fill="#DE5753" />
    <path
        d="M151.705 94.0452C151.606 94.0745 151.494 94.0609 151.411 94.0093C150.866 93.6404 150.129 93.4919 149.42 93.6078C149.271 93.6431 149.113 93.579 149.066 93.4631C149.02 93.3478 149.104 93.2253 149.253 93.1894L149.255 93.1889C150.145 93.0241 151.084 93.2036 151.772 93.6698C151.895 93.7443 151.917 93.882 151.82 93.9766C151.818 93.9777 151.817 93.9793 151.815 93.9804C151.783 94.0071 151.746 94.0283 151.705 94.0452Z"
        fill="#263238" />
    <path
        d="M142.385 95.6161C142.338 95.6416 142.282 95.6547 142.225 95.6541C142.072 95.6291 141.974 95.5127 142.007 95.3946C142.008 95.393 142.008 95.3914 142.009 95.3898C142.193 94.6945 142.804 94.1124 143.646 93.829C143.793 93.7871 143.955 93.8453 144.01 93.959C144.06 94.0727 143.985 94.1968 143.841 94.2408C143.184 94.4791 142.713 94.9437 142.568 95.4931C142.534 95.5524 142.467 95.5976 142.385 95.6161Z"
        fill="#263238" />
    <path opacity="0.6"
        d="M151.705 94.0452C151.606 94.0745 151.494 94.0609 151.411 94.0093C150.866 93.6404 150.129 93.4919 149.42 93.6078C149.271 93.6431 149.113 93.579 149.066 93.4631C149.02 93.3478 149.104 93.2253 149.253 93.1894L149.255 93.1889C150.145 93.0241 151.084 93.2036 151.772 93.6698C151.895 93.7443 151.917 93.882 151.82 93.9766C151.818 93.9777 151.817 93.9793 151.815 93.9804C151.783 94.0071 151.746 94.0283 151.705 94.0452Z"
        fill="white" />
    <path opacity="0.6"
        d="M142.385 95.6161C142.338 95.6416 142.282 95.6547 142.225 95.6541C142.072 95.6291 141.974 95.5127 142.007 95.3946C142.008 95.393 142.008 95.3914 142.009 95.3898C142.193 94.6945 142.804 94.1124 143.646 93.829C143.793 93.7871 143.955 93.8453 144.01 93.959C144.06 94.0727 143.985 94.1968 143.841 94.2408C143.184 94.4791 142.713 94.9437 142.568 95.4931C142.534 95.5524 142.467 95.5976 142.385 95.6161Z"
        fill="white" />
    <path opacity="0.2"
        d="M146.904 102.661C146.904 102.661 147.415 103.055 148.111 102.446C148.111 102.446 149.086 103.629 150.107 101.011C150.107 101.011 152.838 101.433 153.588 101.011C154.098 100.724 153.588 100.199 153.588 100.199C153.588 100.199 154.703 100.114 154.981 99.4688C154.981 99.4688 155.863 102.032 150.757 101.549C150.757 101.549 149.113 104.31 146.904 102.661Z"
        fill="black" />
    <path
        d="M162.512 96.0765C162.171 97.2058 161.265 98.1845 159.992 98.7981C158.299 99.6016 156.908 98.531 156.918 97.0753C156.943 95.7816 157.833 93.7656 159.759 93.5659C161.688 93.3668 162.908 94.686 162.512 96.0765Z"
        fill="#E4897B" />
    <path opacity="0.2" d="M149.291 96.3105C149.291 96.3105 149.562 97.3529 151.181 97.0297" stroke="black"
        stroke-width="0.5" stroke-miterlimit="10" stroke-linecap="round" stroke-linejoin="round" />
    <path opacity="0.2" d="M145.355 97.0918C145.355 97.0918 145.322 98.3316 144.21 98.2364" stroke="black"
        stroke-width="0.5" stroke-miterlimit="10" stroke-linecap="round" stroke-linejoin="round" />
    <path opacity="0.2" d="M143.351 93.13C143.351 93.13 145.878 91.9664 148.643 92.2025" stroke="black"
        stroke-width="0.5" stroke-miterlimit="10" stroke-linecap="round" stroke-linejoin="round" />
    <path opacity="0.2" d="M143.351 92.4743C143.351 92.4743 145.46 90.7884 148.643 91.5059" stroke="black"
        stroke-width="0.5" stroke-miterlimit="10" stroke-linecap="round" stroke-linejoin="round" />
    <path opacity="0.2" d="M144.024 91.3279C144.024 91.3279 145.837 90.0707 148.854 90.7524" stroke="black"
        stroke-width="0.5" stroke-miterlimit="10" stroke-linecap="round" stroke-linejoin="round" />
    <path
        d="M211.538 128.656L207.99 131.665C207.99 131.665 205.501 132.828 205.354 133.49C205.205 134.153 208.446 142.768 208.446 142.768C208.446 142.768 212.865 140.147 212.725 139.356C212.586 138.565 210.497 134.673 210.497 134.673L214.376 131.884L211.538 128.656Z"
        fill="#E4897B" />
    <path
        d="M181.249 98.2461C181.249 98.2461 212.168 99.8797 223.587 110.075C235.005 120.271 212.725 134.672 212.725 134.672L208.703 129.391C208.703 129.391 217.738 122.332 214.396 117.535C211.054 112.739 193.977 113.157 193.977 113.157C193.977 113.157 177.345 107.856 181.249 98.2461Z"
        fill="#00A28E" />
    <path opacity="0.4"
        d="M214.375 133.519C213.361 134.259 212.721 134.672 212.721 134.672L208.701 129.39C208.701 129.39 209.046 129.124 209.574 128.656C211.749 126.73 217.093 121.404 214.396 117.536C211.052 112.738 193.973 113.157 193.973 113.157C193.973 113.157 177.345 107.859 181.245 98.2461C181.245 98.2461 212.165 99.8781 223.583 110.073C233.066 118.543 219.31 129.907 214.375 133.519Z"
        fill="black" />
    <path opacity="0.1"
        d="M214.375 133.52C213.362 134.259 212.721 134.673 212.721 134.673L208.701 129.391C208.701 129.391 209.046 129.124 209.574 128.656L214.375 133.52Z"
        fill="black" />
    <path
        d="M147.941 153.636H107.426C106.454 153.636 105.666 153.027 105.666 152.276C105.666 151.525 106.454 150.916 107.426 150.916H147.941C148.913 150.916 149.701 151.525 149.701 152.276C149.701 153.027 148.913 153.636 147.941 153.636Z"
        fill="#00A28E" />
    <g opacity="0.2">
        <path
            d="M147.941 153.636H107.426C106.454 153.636 105.666 153.027 105.666 152.276C105.666 151.525 106.454 150.916 107.426 150.916H147.941C148.913 150.916 149.701 151.525 149.701 152.276C149.701 153.027 148.913 153.636 147.941 153.636Z"
            fill="white" />
    </g>
    <path
        d="M144.422 194.956H103.906C102.934 194.956 102.146 194.348 102.146 193.596C102.146 192.845 102.934 192.236 103.906 192.236H144.422C145.394 192.236 146.182 192.845 146.182 193.596C146.182 194.348 145.394 194.956 144.422 194.956Z"
        fill="#00A28E" />
    <g opacity="0.2">
        <path
            d="M144.422 194.956H103.906C102.934 194.956 102.146 194.348 102.146 193.596C102.146 192.845 102.934 192.236 103.906 192.236H144.422C145.394 192.236 146.182 192.845 146.182 193.596C146.182 194.348 145.394 194.956 144.422 194.956Z"
            fill="white" />
    </g>
    <path
        d="M143.943 226.944L148.903 164.86H188.799L193.76 226.944H197.286L190.91 147.137C190.597 143.349 186.505 140.382 181.593 140.382H156.11C151.198 140.382 147.106 143.349 146.792 147.139L140.417 226.944H143.943ZM150.305 147.31C150.5 144.95 153.05 143.102 156.11 143.102H181.593C184.653 143.102 187.203 144.95 187.397 147.308L188.582 162.14H149.121L150.305 147.31Z"
        fill="#00A28E" />
    <path opacity="0.2"
        d="M143.943 226.944L148.903 164.86H188.799L193.76 226.944H197.286L190.91 147.137C190.597 143.349 186.505 140.382 181.593 140.382H156.11C151.198 140.382 147.106 143.349 146.792 147.139L140.417 226.944H143.943ZM150.305 147.31C150.5 144.95 153.05 143.102 156.11 143.102H181.593C184.653 143.102 187.203 144.95 187.397 147.308L188.582 162.14H149.121L150.305 147.31Z"
        fill="white" />
</svg>